<?xml version="1.0" encoding="UTF-8"?>
<svg version="1.1" xmlns="http://www.w3.org/2000/svg" width="512" height="512">
<path d="M0 0 C1.95873047 -0.04640625 1.95873047 -0.04640625 3.95703125 -0.09375 C15.79255741 0.94739618 23.21325762 9.99155222 30.875 18.0625 C32.51325289 19.77674807 34.15528852 21.48676516 35.80708313 23.18797302 C36.82610613 24.23847536 37.83748018 25.29647818 38.83927917 26.36341858 C44.89951837 32.63570254 51.03375927 35.5928628 59.7109375 35.80859375 C66.34838349 35.75118337 71.6941344 33.98746198 77.8125 31.5625 C87.84376275 27.65920623 97.66899391 24.49558628 108.1875 28.5 C116.82999898 32.87867473 122.05646115 38.60968507 125.12402344 47.80883789 C126.73827616 52.97583168 128.12136926 58.19436578 129.43359375 63.4453125 C133.15715952 79.64321919 133.15715952 79.64321919 144.1875 91.5 C151.95495363 95.23120455 159.69660702 96.66572704 168.15234375 97.921875 C176.83998468 99.33133842 183.27103882 101.7618081 189.1875 108.5 C189.88875 109.263125 190.59 110.02625 191.3125 110.8125 C196.09240983 117.6637041 196.93962439 124.26161419 196.1875 132.5 C194.95876809 138.16043252 193.28627667 143.69123812 191.60546875 149.23071289 C188.31427822 160.18875414 185.13395376 172.77562 190.80859375 183.4921875 C194.82247285 189.33675933 200.26464031 193.59965651 205.75 198 C214.26751231 204.89906684 220.18626001 210.96442911 221.5 222.1640625 C221.94852674 232.11574955 218.79907903 239.0164303 212.26293945 246.29858398 C207.69146557 251.14754058 202.859213 255.74566786 198.0390625 260.34570312 C191.00227672 267.23122042 185.78541672 273.92291613 184.875 283.9375 C184.98405207 291.32577758 188.05631485 298.4249414 190.56640625 305.28515625 C194.34232303 315.74276933 196.28215009 324.61610559 191.51171875 335.14453125 C186.79462368 343.53511629 180.77042114 347.84886302 171.59326172 350.56298828 C166.58774768 351.91410204 161.56068774 353.18382199 156.52612305 354.421875 C145.96162564 357.03875814 135.38227463 359.73131692 129.1875 369.5 C125.43246288 376.86875565 124.55620345 384.79982816 123.2578125 392.89648438 C121.30721531 404.00333878 117.29927432 410.81213458 108.1875 417.5 C100.67894434 422.25031072 90.77536472 421.3931691 82.3137207 419.74584961 C78.47377555 418.74006162 74.67406203 417.65040651 70.875 416.5 C54.70843933 411.61873123 54.70843933 411.61873123 38.625 415.0546875 C31.98437849 418.99223551 27.33961172 425.25450507 22.5625 431.1875 C16.39592273 438.84219227 10.48679486 444.72944405 0.35546875 445.96875 C-0.95808594 445.9790625 -2.27164063 445.989375 -3.625 446 C-5.58373047 446.04640625 -5.58373047 446.04640625 -7.58203125 446.09375 C-19.41755741 445.05260382 -26.83825762 436.00844778 -34.5 427.9375 C-36.13825289 426.22325193 -37.78028852 424.51323484 -39.43208313 422.81202698 C-40.45110613 421.76152464 -41.46248018 420.70352182 -42.46427917 419.63658142 C-48.52451837 413.36429746 -54.65875927 410.4071372 -63.3359375 410.19140625 C-69.97338349 410.24881663 -75.3191344 412.01253802 -81.4375 414.4375 C-91.46876275 418.34079377 -101.29399391 421.50441372 -111.8125 417.5 C-120.3985452 413.14992726 -125.67087185 407.44848793 -128.69824219 398.29248047 C-130.36352913 392.92464379 -131.81311288 387.49848838 -133.28125 382.07421875 C-133.53583984 381.14955811 -133.79042969 380.22489746 -134.05273438 379.2722168 C-134.54631906 377.47123542 -135.02751995 375.66679769 -135.49414062 373.85864258 C-137.66373638 365.89148972 -141.12430679 358.65100339 -148.06640625 353.80859375 C-155.10451881 350.45472788 -163.23152881 349.48409394 -170.85888672 348.13916016 C-181.30814769 346.29611158 -188.96361378 343.95470843 -195.25 335 C-200.28891109 326.58320391 -201.08302386 318.54632494 -199.06005859 308.91918945 C-197.85892869 304.46830646 -196.56540489 300.05081277 -195.23046875 295.63891602 C-192.11541923 285.23290238 -189.28469073 274.57018129 -193.8125 264.1875 C-197.83427127 257.2141767 -203.60350092 252.39901296 -209.875 247.5 C-217.23929269 241.68787361 -223.10478207 236.0232198 -224.8125 226.5 C-225.63421481 218.50274742 -225.0920308 210.98692025 -220.2421875 204.3515625 C-216.51804707 200.07245212 -212.46651188 196.15820844 -208.39453125 192.21484375 C-207.20549194 191.05263306 -207.20549194 191.05263306 -205.99243164 189.86694336 C-204.40655235 188.32217297 -202.80852007 186.78975387 -201.19702148 185.27172852 C-194.2912165 178.56600587 -189.60687286 171.26119625 -188.46875 161.57421875 C-188.57497187 154.44786955 -192.16830718 147.39288697 -194.61328125 140.81054688 C-198.24706143 130.537908 -199.8089282 121.0172047 -195.13671875 110.8203125 C-190.36850251 102.46538494 -184.40216688 98.15313202 -175.21826172 95.43701172 C-170.21274768 94.08589796 -165.18568774 92.81617801 -160.15112305 91.578125 C-149.08156607 88.83613588 -138.43381195 85.8839025 -132.08984375 75.5859375 C-129.37279268 69.021808 -128.44078094 61.92271122 -127.24584961 54.95239258 C-125.66381691 45.99942441 -123.83797852 37.79112163 -116.59375 31.60546875 C-107.97187007 25.699481 -100.10907646 24.47761887 -89.8125 25.5 C-84.59093586 26.51832967 -79.52439793 27.95828062 -74.4375 29.5 C-62.03938337 33.19556264 -51.81570705 35.93650233 -39.8125 29.5 C-33.58848577 24.58200843 -28.88515324 18.16114942 -23.9375 12.01953125 C-17.26419829 4.10725257 -10.52873378 0.08265934 0 0 Z M-103.6953125 131.59765625 C-127.56392994 158.53132429 -140.34927334 193.48433769 -138.8125 229.5 C-136.17650067 267.46216962 -119.57516265 301.21208434 -91.32543945 326.69213867 C-62.47873931 351.78380579 -26.34683818 361.09538092 11.1875 359.5 C39.03469156 357.25312371 66.33423872 344.82268119 87.1875 326.5 C88.01636719 325.80390625 88.84523438 325.1078125 89.69921875 324.390625 C116.36854198 301.44747095 131.3689929 268.08175642 134.9375 233.4375 C135.04155983 231.79284704 135.12601255 230.14679419 135.1875 228.5 C135.22746094 227.6853125 135.26742188 226.870625 135.30859375 226.03125 C136.15912753 192.81040111 124.29028471 159.2972938 102.1875 134.5 C101.09308594 133.22576172 101.09308594 133.22576172 99.9765625 131.92578125 C78.61440939 107.45299883 46.26373785 88.9861718 13.37548828 86.61279297 C-31.46888026 84.30102124 -72.77657854 97.80202578 -103.6953125 131.59765625 Z " fill="#000000" transform="translate(257.8125,-0.49999999999999994)"/>
<path d="M0 0 C20.59962842 18.12612707 34.68520938 42.57876562 38 70 C38.2801725 74.44206832 38.3344262 78.86243406 38.3125 83.3125 C38.30512817 85.09188965 38.30512817 85.09188965 38.29760742 86.90722656 C38.18097024 95.64245406 37.45184066 103.57674096 35 112 C34.6596875 113.22203125 34.319375 114.4440625 33.96875 115.703125 C25.49148713 143.54062334 6.20694185 165.79916861 -19.1875 179.625 C-44.57898784 192.95490393 -73.40177122 195.64847756 -100.97265625 187.93359375 C-128.80324857 179.21314962 -152.12715331 160.83001857 -166.03027344 135.09277344 C-178.84570237 110.40700621 -182.9981343 79.82658499 -174.65039062 52.96142578 C-164.85143807 23.41008012 -145.97635864 0.10564262 -118.25 -14.25 C-79.98977563 -33.16765802 -32.63709229 -27.3609303 0 0 Z M-76 23 C-77.05293008 25.68581922 -77.98117591 28.31771821 -78.84765625 31.0625 C-79.1050206 31.85019775 -79.36238495 32.63789551 -79.62754822 33.44946289 C-80.44780578 35.96360985 -81.25591535 38.48143642 -82.0625 41 C-82.87419647 43.5180137 -83.68851311 46.03510091 -84.50816345 48.55053711 C-85.0173665 50.11483575 -85.52174888 51.68071368 -86.02076721 53.24829102 C-87.07786838 56.50948242 -88.08583771 59.12875656 -90 62 C-93.77922531 63.25974177 -97.27892181 63.08512635 -101.2109375 63.02734375 C-102.86458123 63.01469565 -104.51822717 63.00233482 -106.171875 62.99023438 C-108.77448455 62.96543593 -111.37697855 62.93747459 -113.97949219 62.90405273 C-116.49414797 62.87377578 -119.00865713 62.85605164 -121.5234375 62.83984375 C-122.29754974 62.82638412 -123.07166199 62.8129245 -123.86923218 62.79905701 C-128.01127393 62.77990441 -131.35024457 62.94887317 -135 65 C-137.21848872 67.7839576 -137.21848872 67.7839576 -137.171875 70.76171875 C-135.3500968 75.79589918 -131.55796984 77.85082201 -127.25 80.8125 C-126.39486816 81.42125977 -125.53973633 82.03001953 -124.65869141 82.65722656 C-122.11912371 84.45821006 -119.56375627 86.23366454 -117 88 C-116.28875977 88.49097168 -115.57751953 88.98194336 -114.84472656 89.48779297 C-114.19729492 89.93396973 -113.54986328 90.38014648 -112.8828125 90.83984375 C-112.28307617 91.25322998 -111.68333984 91.66661621 -111.06542969 92.0925293 C-109.47514732 93.18142714 -107.87460735 94.25530087 -106.2734375 95.328125 C-104 97 -104 97 -103 99 C-102.63220262 104.3766884 -103.6152089 108.69502658 -105.44140625 113.69140625 C-105.94736503 115.1451477 -106.45322134 116.59892481 -106.95898438 118.05273438 C-107.76052378 120.31421178 -108.56661472 122.57398687 -109.37573242 124.83276367 C-110.15913772 127.03178354 -110.92582814 129.23612874 -111.69140625 131.44140625 C-111.93717911 132.11031387 -112.18295197 132.7792215 -112.43617249 133.46839905 C-113.88858073 137.67218658 -114.34160454 140.72159279 -113 145 C-109.39931605 147.40045596 -108.25048375 147.6358203 -104 147 C-101.07822962 145.3080467 -98.53912574 143.20550203 -95.9375 141.0625 C-94.43267143 139.86897017 -92.92614296 138.67758064 -91.41796875 137.48828125 C-90.67466309 136.89740723 -89.93135742 136.3065332 -89.16552734 135.69775391 C-86.09114717 133.28746758 -82.94802303 130.9927023 -79.75 128.75 C-78.75484375 128.04359375 -77.7596875 127.3371875 -76.734375 126.609375 C-73.93295819 124.96054111 -72.24287026 124.10071026 -69 124 C-63.25784691 126.13068431 -58.484754 130.16386394 -53.625 133.8125 C-52.81289063 134.41642578 -52.00078125 135.02035156 -51.1640625 135.64257812 C-44.70426803 140.45119115 -44.70426803 140.45119115 -41.73266602 142.7668457 C-41.03069092 143.31042725 -40.32871582 143.85400879 -39.60546875 144.4140625 C-38.98824951 144.89955566 -38.37103027 145.38504883 -37.73510742 145.88525391 C-35.04839361 147.61137397 -33.07233376 147.6430466 -30 147 C-28.00951117 145.62724908 -27.24541456 144.55862458 -26.28149414 142.36450195 C-25.85435987 138.7766482 -27.13774508 135.75799035 -28.30859375 132.41796875 C-28.55416519 131.68556473 -28.79973663 130.95316071 -29.05274963 130.19856262 C-30.10144701 127.07193432 -31.17438988 123.95377146 -32.24536133 120.8347168 C-33.02499064 118.55276406 -33.79200594 116.26682914 -34.55859375 113.98046875 C-34.80234238 113.28543747 -35.046091 112.59040619 -35.29722595 111.87431335 C-36.77813017 107.45215722 -37.4079248 103.65501501 -37 99 C-33.4904841 94.46515495 -28.5656641 91.41571927 -23.875 88.1875 C-22.36194938 87.12634456 -20.8489286 86.06514656 -19.3359375 85.00390625 C-16.73397279 83.19164068 -14.11851148 81.40569312 -11.4765625 79.65234375 C-10.49429688 78.98332031 -9.51203125 78.31429687 -8.5 77.625 C-7.6440625 77.06039062 -6.788125 76.49578125 -5.90625 75.9140625 C-3.38082898 73.37829139 -3.17443595 71.52172038 -3 68 C-4.05893971 65.61557197 -4.05893971 65.61557197 -6 64 C-10.06784183 62.69861741 -14.11934562 62.91041497 -18.34375 62.97265625 C-19.99869585 62.98529929 -21.65364388 62.99766048 -23.30859375 63.00976562 C-25.90908624 63.03460483 -28.50946517 63.0626213 -31.10986328 63.09594727 C-33.62533287 63.12615954 -36.14065682 63.14392388 -38.65625 63.16015625 C-39.82045471 63.18034569 -39.82045471 63.18034569 -41.00817871 63.20094299 C-48.21957061 63.23443258 -48.21957061 63.23443258 -51 61 C-52.10522461 58.890625 -52.10522461 58.890625 -52.96484375 56.25 C-53.29468262 55.26257813 -53.62452148 54.27515625 -53.96435547 53.2578125 C-54.47699951 51.64519531 -54.47699951 51.64519531 -55 50 C-55.54938232 48.32550781 -55.54938232 48.32550781 -56.10986328 46.6171875 C-57.66878554 41.85858229 -59.21372382 37.09582097 -60.73242188 32.32421875 C-61.29993164 30.58591797 -61.29993164 30.58591797 -61.87890625 28.8125 C-62.2147876 27.76707031 -62.55066895 26.72164062 -62.89672852 25.64453125 C-63.98127583 23.04488167 -64.75835999 21.67251897 -67 20 C-71.3286937 19.45891329 -73.2317227 19.63728179 -76 23 Z " fill="#000000" transform="translate(326,139)"/>
<path d="M0 0 C3.69631624 1.43948189 4.98576298 2.21586233 7.2475605 5.61258316 C10.35939891 12.85480007 11.96155785 20.72281771 13.87646675 28.34305191 C17.48368728 42.09647839 22.42211796 54.48496536 35.052248 62.13211441 C48.66351822 69.19296084 61.18233403 69.71454564 76.052248 66.31570816 C71.8436504 71.3350743 67.45718466 76.05928767 62.82519722 80.68802261 C62.12848915 81.38808929 61.43178108 82.08815598 60.71396065 82.8094368 C58.43090829 85.10191962 56.14416813 87.39067779 53.8569355 89.67898941 C52.26076247 91.27837826 50.66466377 92.87784128 49.06863594 94.47737503 C45.7334055 97.81857528 42.39613266 101.1577202 39.05761909 104.4956398 C34.77748384 108.77567303 30.50429212 113.06256759 26.23280334 117.35122776 C22.94372549 120.65140849 19.65012859 123.94705011 16.35523033 127.24141884 C14.77714812 128.8206818 13.20068881 130.40156818 11.6258831 131.98409843 C9.42880015 134.19095541 7.22550027 136.3914142 5.02050972 138.59036636 C4.37106392 139.24543167 3.72161812 139.90049698 3.05249214 140.57541275 C2.44984535 141.17386505 1.84719856 141.77231735 1.22628975 142.38890457 C0.70681707 142.90892201 0.1873444 143.42893946 -0.34786987 143.964715 C-4.45405382 147.43211196 -8.24398665 147.79510834 -13.46728325 147.71023941 C-17.50703265 147.06769659 -19.19792357 145.27706186 -21.947752 142.31570816 C-26.0113666 134.18847895 -22.3565452 120.78625043 -20.947752 112.19070816 C-17.5539152 96.97877265 -17.5539152 96.97877265 -20.947752 82.62820816 C-25.61321445 79.03191419 -30.21315319 79.1632574 -35.87841606 79.66116714 C-37.24168354 79.86765835 -38.60334869 80.08495433 -39.963377 80.31180191 C-40.70045891 80.42419708 -41.43754082 80.53659225 -42.19695854 80.65239334 C-44.53227934 81.00912274 -46.86507608 81.37960229 -49.197752 81.75320816 C-75.49877589 85.94384899 -75.49877589 85.94384899 -80.93163872 83.37918472 C-84.14554779 80.92930819 -86.1260577 78.24158094 -86.947752 74.31570816 C-87.02907469 69.35502421 -86.5747179 66.61767255 -83.22289848 62.94119644 C-82.58794456 62.24326981 -81.95299065 61.54534317 -81.2987957 60.82626724 C-80.52295128 59.99778275 -79.74710686 59.16929825 -78.947752 58.31570816 C-78.49137981 57.82700996 -78.03500763 57.33831177 -77.56480598 56.83480453 C-70.25718934 49.02517003 -62.8178717 41.3427318 -55.34158993 33.69479561 C-51.81254025 30.08282912 -48.30291447 26.45558714 -44.83227348 22.78738785 C-41.45337756 19.21722845 -38.03171686 15.69366355 -34.57632065 12.19754791 C-33.27552482 10.86619517 -31.99041619 9.51931228 -30.72242737 8.15667725 C-20.67427626 -2.60797727 -14.36333684 -5.0461836 0 0 Z " fill="#000000" transform="translate(98.94775199890137,364.6842918395996)"/>
<path d="M0 0 C2.34484819 1.86192246 4.33183029 3.66883274 6.41088867 5.7956543 C7.03263474 6.41185135 7.6543808 7.0280484 8.29496765 7.66291809 C10.34845637 9.70458949 12.38332431 11.76378029 14.41796875 13.82421875 C15.84005113 15.24801192 17.26302221 16.67091795 18.68684387 18.0929718 C21.66948656 21.07726901 24.64340812 24.06991224 27.61108398 27.0690918 C31.41409535 30.91174433 35.23447669 34.73653452 39.06110668 38.55565166 C42.00174798 41.49322174 44.9347343 44.43833629 47.86528969 47.38596535 C49.2711691 48.79887313 50.67900578 50.20983617 52.08882713 51.61881065 C54.05921389 53.59099695 56.01950761 55.57268897 57.97729492 57.55737305 C58.56069641 58.13784393 59.1440979 58.71831482 59.74517822 59.31637573 C62.70116174 62.33518313 64.89182736 64.80921312 66 69 C65.89634995 75.52995315 64.59777507 78.40222493 60 83 C50.89639989 87.55180005 34.97681121 82.56393037 25.24975586 81.06079102 C22.87989767 80.69768491 20.50847828 80.34652994 18.13671875 79.99609375 C17.42303635 79.88156357 16.70935394 79.76703339 15.9740448 79.64903259 C10.28965329 78.81342003 5.44369769 79.1854341 0 81 C-5.27479896 91.00233753 -1.14767132 104.87265401 0.578125 115.40234375 C3.80800743 136.23508542 3.80800743 136.23508542 0.95947266 142.16674805 C-1.38207041 145.05447981 -3.60670908 146.74359577 -7.25 147.4140625 C-11.3704045 147.73011625 -14.71022887 147.86337216 -18.23153687 145.50621033 C-19.31067856 144.4704763 -19.31067856 144.4704763 -20.41162109 143.41381836 C-21.27632019 142.59195038 -22.14101929 141.7700824 -23.03192139 140.92330933 C-24.0225741 139.95018761 -25.01184662 138.97565956 -26 138 C-26.54998909 137.46318226 -27.09997818 136.92636452 -27.66663361 136.37327957 C-32.28297718 131.86728489 -36.85142235 127.31417686 -41.4140625 122.75390625 C-42.87943484 121.29175259 -44.34488002 119.82967193 -45.81039429 118.36766052 C-48.85957654 115.32442666 -51.90672528 112.27917339 -54.95263672 109.23266602 C-58.86397205 105.32122818 -62.78219453 101.41676649 -66.70212746 97.51394749 C-69.71998003 94.50717158 -72.73331918 91.49590427 -75.74537277 88.48332024 C-77.18952652 87.04034897 -78.63530765 85.59900456 -80.08272171 84.15930367 C-82.09326317 82.15849348 -84.09744886 80.15152792 -86.10009766 78.14282227 C-87.0022551 77.24909409 -87.0022551 77.24909409 -87.92263794 76.33731079 C-92 72.22832921 -92 72.22832921 -92 70 C-90.96101563 70.03480469 -89.92203125 70.06960938 -88.8515625 70.10546875 C-73.99196524 70.45701681 -62.05055734 67.35265241 -50.84765625 56.99609375 C-41.50910732 46.90730198 -38.8613684 33.49064938 -37.21411133 20.26757812 C-36.51979701 15.30331332 -35.47002025 11.82490868 -32 8 C-29.4369471 6.58544503 -26.81231053 5.78387886 -24 5 C-23.2260791 4.77135254 -22.4521582 4.54270508 -21.65478516 4.30712891 C-19.21556323 3.60675825 -16.76782622 2.95394671 -14.3125 2.3125 C-13.48427734 2.08755859 -12.65605469 1.86261719 -11.80273438 1.63085938 C-10.99771484 1.41880859 -10.19269531 1.20675781 -9.36328125 0.98828125 C-8.64438721 0.79790283 -7.92549316 0.60752441 -7.18481445 0.41137695 C-4.50524677 -0.09315669 -2.73794548 -0.38426456 0 0 Z " fill="#000000" transform="translate(434,365)"/>
</svg>
