<svg width="176" height="179" viewBox="0 0 176 179" fill="none" xmlns="http://www.w3.org/2000/svg">
<path d="M39.8916 30.1362L40.3916 29.5649V77.438L78.0244 32.6382L78.1748 32.4595H101.956L101.256 33.2827L57.5117 84.7729L101.027 136.263L101.723 137.085H78.4053L78.2559 136.91L40.3916 92.3237V147.565C53.5956 158.876 70.711 165.704 89.4121 165.704C94.919 165.704 100.288 165.111 105.461 163.987V177.563C100.254 178.507 94.8908 179 89.4121 179C40.0313 179 0.000212375 138.969 0 89.5884C2.8534e-05 58.5224 15.844 31.1572 39.8916 15.1313V30.1362ZM21.7383 55.52C16.6306 65.7702 13.7559 77.3416 13.7559 89.5884C13.7559 101.834 16.6315 113.403 21.7383 123.652V55.52Z" fill="white"/>
<path d="M89.4124 0C128.855 0.000126797 162.33 25.5398 174.208 60.9834H159.614C148.418 33.0285 121.206 13.297 89.4124 13.2969C72.9926 13.2969 57.7947 18.56 45.3938 27.5V11.5693C58.3886 4.20522 73.4094 2.58929e-05 89.4124 0Z" fill="#D9D9D9"/>
<path d="M89.4124 0C128.855 0.000126797 162.33 25.5398 174.208 60.9834H159.614C148.418 33.0285 121.206 13.297 89.4124 13.2969C72.9926 13.2969 57.7947 18.56 45.3938 27.5V11.5693C58.3886 4.20522 73.4094 2.58929e-05 89.4124 0Z" fill="white"/>
<path d="M175.385 67.6323H84.5977L67.8616 84.5977H112.109V175.844L129.075 157.503V84.5977H159.108L175.385 67.6323Z" fill="white"/>
</svg>

