<svg width="179" height="182" viewBox="0 0 179 182" fill="none" xmlns="http://www.w3.org/2000/svg">
<path d="M40.5605 30.6543L41.0605 30.083V78.7598L79.3389 33.1904L79.4893 33.0117H103.647L102.947 33.8359L58.4648 86.1943L102.715 138.553L103.41 139.375H79.7236L79.5742 139.199L41.0605 93.8486V150.03C54.487 161.535 71.8928 168.479 90.9111 168.479C96.5102 168.479 101.969 167.876 107.229 166.733V180.538C101.935 181.498 96.4816 182 90.9111 182C40.7027 182 0.000327842 141.298 0 91.0898C0 59.5031 16.1097 31.6793 40.5605 15.3848V30.6543ZM22.1113 56.4336C16.9128 66.8595 13.9864 78.6304 13.9863 91.0889C13.9864 103.546 16.9136 115.315 22.1113 125.74V56.4336Z" fill="#1A2766"/>
<path d="M90.9106 0C131.014 0.000158084 165.052 25.968 177.128 62.0059H162.289C150.906 33.5826 123.237 13.5207 90.9106 13.5205C74.2159 13.5206 58.7635 18.8722 46.1548 27.9619V11.7637C59.3674 4.27614 74.6396 0.000111772 90.9106 0Z" fill="#003347"/>
<path d="M90.9106 0C131.014 0.000158084 165.052 25.968 177.128 62.0059H162.289C150.906 33.5826 123.237 13.5207 90.9106 13.5205C74.2159 13.5206 58.7635 18.8722 46.1548 27.9619V11.7637C59.3674 4.27614 74.6396 0.000111772 90.9106 0Z" fill="#AE1B1E"/>
<path d="M178.325 68.7656H86.0157L68.999 86.0154H113.988V178.791L131.238 160.143V86.0154H161.775L178.325 68.7656Z" fill="#AE1B1E"/>
</svg>
