<?xml version="1.0" encoding="UTF-8"?>
<svg version="1.1" xmlns="http://www.w3.org/2000/svg" width="512" height="512">
<path d="M0 0 C1.26457031 -0.03867188 1.26457031 -0.03867188 2.5546875 -0.078125 C8.87820787 0.72913292 13.03542794 5.87062648 17.31852722 10.16937256 C18.38862588 11.2316162 18.38862588 11.2316162 19.48034269 12.3153193 C21.8695297 14.68950454 24.25151384 17.07078525 26.63354492 19.45214844 C28.34490904 21.15589135 30.05667541 22.85923029 31.76881409 24.56219482 C36.41813823 29.18956678 41.06088067 33.82349501 45.70176864 38.45932293 C48.60037 41.35466437 51.50060016 44.2483704 54.40117836 47.14173126 C62.4348781 55.15587232 70.46700014 63.17158494 78.4923811 71.19405746 C79.26215954 71.96355455 79.26215954 71.96355455 80.04748907 72.74859704 C81.08777797 73.7885197 82.1280656 74.82844364 83.16835197 75.86836883 C83.68473674 76.38457079 84.20112151 76.90077275 84.7331543 77.43261719 C85.25016914 77.94945148 85.76718398 78.46628577 86.29986594 78.99878171 C94.68222372 87.37759596 103.07626398 95.7445994 111.47551294 104.10647795 C120.1025728 112.69546062 128.72024665 121.2937656 137.32844049 129.90165734 C142.16037699 134.73300927 146.99619089 139.56033056 151.84227562 144.37749481 C156.3984924 148.90664495 160.9417425 153.44853804 165.47640038 157.99927521 C167.14341014 159.66810476 168.81471004 161.33266138 170.49055862 162.99261475 C172.77624633 165.2579372 175.04601304 167.53810774 177.31242371 169.82269287 C177.98021243 170.47728163 178.64800115 171.13187038 179.33602589 171.80629516 C184.64284019 177.21092678 186.37266861 182.19761482 186.37896729 189.82571411 C186.38460693 190.88514725 186.39024658 191.94458038 186.39605713 193.03611755 C186.38998444 194.74904747 186.38998444 194.74904747 186.38378906 196.49658203 C186.38904602 198.32484779 186.38904602 198.32484779 186.39440918 200.19004822 C186.40168303 203.51900085 186.40000508 206.84770352 186.39365101 210.17664194 C186.3885621 213.67659225 186.39329109 217.17653239 186.39642334 220.67648315 C186.40005748 226.55908099 186.39528142 232.44162856 186.38574219 238.32421875 C186.37488907 245.09458316 186.37836249 251.8648268 186.389395 258.63518822 C186.39852008 264.47158808 186.39972691 270.30795191 186.39451766 276.14435661 C186.39142256 279.61945243 186.3909194 283.09449185 186.39759064 286.56958389 C186.40452946 290.45545249 186.39486683 294.34119003 186.38378906 298.22705078 C186.38783752 299.35685867 186.39188599 300.48666656 186.39605713 301.65071106 C186.30511062 319.00825922 182.80901072 333.9494624 171.125 347.25 C155.33531203 362.39362872 137.70086958 363.71517198 116.94921875 363.54296875 C115.15547974 363.53854729 113.36173684 363.53549331 111.56799316 363.53381348 C104.98276901 363.51820768 98.3976282 363.4763243 91.8125 363.4375 C77.065625 363.375625 62.31875 363.31375 47.125 363.25 C47.125 320.02 47.125 276.79 47.125 232.25 C16.105 232.25 -14.915 232.25 -46.875 232.25 C-46.875 275.48 -46.875 318.71 -46.875 363.25 C-61.56 363.3325 -76.245 363.415 -91.375 363.5 C-95.98017578 363.53641602 -100.58535156 363.57283203 -105.33007812 363.61035156 C-111.03417969 363.62841797 -111.03417969 363.62841797 -113.72009277 363.6317749 C-115.56192919 363.63784321 -117.40375161 363.6517541 -119.2454834 363.67230225 C-135.16467107 363.84074671 -150.60863755 363.16989264 -163.875 353.25 C-164.58011719 352.72535156 -165.28523438 352.20070313 -166.01171875 351.66015625 C-178.71104794 341.3797469 -184.12114488 327.08045379 -185.875 311.25 C-186.12286433 306.90544089 -186.14937948 302.57788298 -186.13378906 298.22705078 C-186.1372937 296.99769302 -186.14079834 295.76833527 -186.14440918 294.50172424 C-186.15163402 291.17352848 -186.15004022 287.84558587 -186.14365101 284.51740503 C-186.13853576 281.01468255 -186.14329701 277.5119698 -186.14642334 274.00924683 C-186.15004417 268.13733001 -186.14531064 262.2654638 -186.13574219 256.39355469 C-186.12483074 249.61953772 -186.12841023 242.84564091 -186.139395 236.07162678 C-186.14848545 230.23010424 -186.14974548 224.38861774 -186.14451766 218.54709041 C-186.14141152 215.06892163 -186.14095174 211.59080928 -186.14759064 208.1126442 C-186.15446797 204.24057623 -186.1449227 200.36864205 -186.13378906 196.49658203 C-186.13783752 195.35462875 -186.14188599 194.21267548 -186.14605713 193.03611755 C-186.14041748 191.97668442 -186.13477783 190.91725128 -186.12896729 189.82571411 C-186.12821323 188.91250963 -186.12745918 187.99930515 -186.12668228 187.05842781 C-185.4093019 179.05345028 -182.50479221 175.1571943 -176.97303772 169.73330688 C-176.25474035 169.00932626 -175.53644298 168.28534564 -174.79637903 167.53942621 C-172.38909264 165.11923238 -169.96437087 162.71731153 -167.53930664 160.31494141 C-165.80885089 158.58262173 -164.07948165 156.84921613 -162.35112 155.11480713 C-158.14336521 150.89810655 -153.9242003 146.69314322 -149.69955928 142.49338467 C-144.7811322 137.60290474 -139.876041 132.69913944 -134.97148591 127.79475431 C-126.2223501 119.04680528 -117.46138607 110.31079945 -108.69360352 101.58154297 C-100.18288556 93.10819742 -91.680283 84.62682008 -83.18676758 76.13623047 C-82.66327801 75.61292371 -82.13978845 75.08961696 -81.60043556 74.55045243 C-81.07785754 74.02805337 -80.55527951 73.50565432 -80.01686579 72.96742499 C-78.96472107 71.91564569 -77.91257288 70.86386987 -76.86042118 69.81209755 C-76.34155557 69.29341745 -75.82268995 68.77473735 -75.28810114 68.24033967 C-67.19548847 60.15129509 -59.09544256 52.06969669 -50.99466275 43.98883236 C-48.0573333 41.05852896 -45.12112805 38.12710441 -42.18573267 35.19486363 C-37.09720678 30.1118529 -32.00365953 25.03394674 -26.90439034 19.96170807 C-25.20912011 18.27389892 -23.51554961 16.58438062 -21.82377243 14.89307022 C-19.52175701 12.59230592 -17.21371993 10.29776257 -14.90394592 8.00479126 C-14.22924179 7.32767204 -13.55453765 6.65055282 -12.85938793 5.95291483 C-12.24157057 5.34216306 -11.6237532 4.73141128 -10.98721409 4.10215187 C-10.45479117 3.57167987 -9.92236825 3.04120788 -9.3738113 2.49466097 C-6.51988132 0.12466599 -3.55544719 0.06484098 0 0 Z " fill="#000000" transform="translate(255.875,131.75)"/>
<path d="M0 0 C8.78864566 7.21723721 16.82599204 15.2049118 24.83834839 23.25694275 C25.96726782 24.38773267 27.09641225 25.51829801 28.22576904 26.64865112 C31.16402953 29.59068712 34.09927175 32.53571577 37.03384399 35.48143005 C40.04234277 38.50025116 43.05375771 41.51616034 46.06491089 44.53233337 C51.94793832 50.42601027 57.82777271 56.32285957 63.70553589 62.2217865 C63.71955444 60.70995789 63.71955444 60.70995789 63.7338562 59.16758728 C63.77410267 55.38379208 63.83995199 51.60078072 63.91305542 47.81748962 C63.94106613 46.18836125 63.9623784 44.559102 63.97653198 42.92979431 C64.07456662 32.27669729 64.68413007 23.77518858 70.39303589 14.4717865 C77.29209524 7.75918821 84.47525718 4.24174106 94.14303589 3.9092865 C99.24176078 4.02073404 103.17198502 4.92242908 107.70553589 7.2217865 C108.38487183 7.55049744 109.06420776 7.87920837 109.76412964 8.21788025 C116.31238246 11.79528113 119.9241336 17.08643285 122.83963013 23.85447693 C123.89683913 27.96572107 123.44251229 31.36404872 122.78659058 35.47764587 C122.55103575 37.16640328 122.32023777 38.85582909 122.0934906 40.54579163 C121.97317537 41.44152012 121.85286015 42.33724861 121.728899 43.26012039 C117.99353158 73.07410136 113.49913837 109.70107751 132.30270386 135.23643494 C148.66674389 156.17019691 169.49477511 174.07682011 190.16011047 190.64826965 C206.12354474 203.47581307 206.12354474 203.47581307 209.70553589 214.2217865 C210.44767787 224.25895267 210.33367659 233.21460613 203.97506714 241.46788025 C197.75672172 248.23234782 190.56599053 251.74417268 181.38131714 252.3155365 C167.59492061 251.83250947 159.638671 244.47875184 150.39437866 235.11749268 C149.59689508 234.31819011 148.7994115 233.51888755 147.97776175 232.6953637 C145.3216862 230.03091223 142.67284981 227.35938064 140.02389526 224.68785095 C138.11558588 222.76963083 136.20570138 220.85298202 134.29582214 218.93632507 C130.19125082 214.81579351 126.09009979 210.69188375 121.99101257 206.56589699 C115.50951408 200.04235831 109.01811818 193.52871772 102.52523804 187.01651001 C100.30090977 184.78530314 98.07665842 182.55401961 95.85243988 180.32270336 C95.29671489 179.76520672 94.7409899 179.20771007 94.16842476 178.63331959 C87.85326981 172.29769944 81.54046956 165.9597351 75.22848511 159.62095642 C74.65193772 159.04196648 74.07539034 158.46297654 73.48137182 157.86644145 C64.12907847 148.47410205 54.78271449 139.0758781 45.43761963 129.67637727 C35.83230735 120.01562716 26.21737416 110.36452116 16.59430742 100.72145623 C10.66419355 94.77827688 4.74219307 88.82723717 -1.16957128 82.86580398 C-5.21984659 78.78280303 -9.27915637 74.70893219 -13.34566796 70.64210216 C-15.69038401 68.29662 -18.0292944 65.94603158 -20.36028099 63.58685875 C-22.88987565 61.02791942 -25.43444017 58.48485198 -27.98330688 55.94512939 C-28.71328211 55.19922572 -29.44325734 54.45332204 -30.19535303 53.68481523 C-34.91068378 49.02906574 -39.41700091 45.43712164 -46.34842443 45.1311062 C-55.18543199 45.78471776 -60.53027266 52.1774328 -66.38961792 58.1100769 C-67.18806507 58.91034304 -67.98651223 59.71060917 -68.80915475 60.53512579 C-71.48057827 63.21495557 -74.1447742 65.90185717 -76.80911255 68.58872986 C-78.72373906 70.51325699 -80.63993213 72.43622133 -82.55612183 74.35919189 C-86.6809001 78.4999571 -90.80226493 82.64409418 -94.92159271 86.7902813 C-101.43711081 93.34778861 -107.96248141 99.89544268 -114.48934937 106.44165039 C-116.72443849 108.68361892 -118.95945111 110.9256637 -121.1944313 113.16774082 C-121.75293012 113.72801129 -122.31142893 114.28828176 -122.88685195 114.86553011 C-129.23907472 121.23823383 -135.58895375 127.61327089 -141.9380188 133.98912048 C-142.80823537 134.86300089 -142.80823537 134.86300089 -143.69603208 135.75453544 C-153.09562329 145.19412697 -162.48926428 154.6396238 -171.88160917 164.08642452 C-181.53430652 173.79460334 -191.19666017 183.49310271 -200.86714196 193.18356615 C-206.82629657 199.15577523 -212.7773498 205.13583329 -218.7181268 211.12632454 C-222.79223561 215.2332153 -226.87543521 219.33092015 -230.9658086 223.42161148 C-233.32291053 225.77947791 -235.67424086 228.1424196 -238.01757812 230.51401138 C-240.56404247 233.08992524 -243.12559743 235.64985654 -245.69137573 238.20651245 C-246.42078047 238.95184563 -247.1501852 239.69717881 -247.90169311 240.46509784 C-254.98325011 247.45828841 -262.5823454 251.82117042 -272.63040161 252.28819275 C-281.26625028 252.07292966 -287.93218871 249.30431678 -294.24368286 243.39756775 C-301.6109564 235.53605364 -302.96254565 228.63055733 -302.69680786 217.90538025 C-300.84738074 200.97324652 -281.31135114 187.08413342 -270.00588989 175.77207947 C-268.15032232 173.9118771 -266.29495035 172.05147959 -264.4397583 170.19090271 C-259.4217971 165.15944822 -254.40014095 160.13169271 -249.37763834 155.10477209 C-246.23599923 151.96035765 -243.0950929 148.81521194 -239.95431137 145.66994095 C-231.24013176 136.94358505 -222.52501735 128.21816514 -213.80644417 119.49619865 C-213.2501813 118.93971622 -212.69391843 118.38323379 -212.12079912 117.80988825 C-211.56330195 117.25217281 -211.00580479 116.69445737 -210.43141377 116.11984146 C-209.30194071 114.98992495 -208.17246922 113.86000689 -207.04299927 112.73008728 C-206.20263645 111.88939232 -206.20263645 111.88939232 -205.34529661 111.03171362 C-196.26234816 101.94481483 -187.18617886 92.85117693 -178.11289777 83.75462626 C-168.77414033 74.39211364 -159.42972654 65.03527744 -150.07966602 55.68405259 C-144.83929747 50.44277012 -139.60133897 45.19912994 -134.36963272 39.94919968 C-129.45006317 35.01255199 -124.52277715 30.08372143 -119.59028244 25.1599884 C-117.78620232 23.356677 -115.9846634 21.550819 -114.18592834 19.74217606 C-83.87040888 -10.73045624 -38.52266245 -30.50991645 0 0 Z " fill="#000000" transform="translate(302.2944641113281,31.778213500976563)"/>
</svg>
