<?xml version="1.0" encoding="UTF-8"?>
<svg version="1.1" xmlns="http://www.w3.org/2000/svg" width="512" height="512">
<path d="M0 0 C1.31266846 0.01244751 1.31266846 0.01244751 2.65185547 0.02514648 C16.20529413 0.37720012 26.09469603 5.61794555 35.9375 14.75 C45.93041038 25.30854681 48.70189781 36.85577923 48.60717773 50.96777344 C48.19639743 65.09016239 42.350381 76.16615726 32.125 85.84375 C19.52122503 96.21137134 6.00042088 97.84486324 -9.8125 96.4375 C-22.96971964 94.04527825 -32.83019541 85.84213327 -40.8125 75.4375 C-43.05922594 71.85242787 -44.8125 68.76582015 -44.8125 64.4375 C-51.0825 64.4375 -57.3525 64.4375 -63.8125 64.4375 C-63.8125 111.9575 -63.8125 159.4775 -63.8125 208.4375 C-57.5425 208.4375 -51.2725 208.4375 -44.8125 208.4375 C-44.4825 206.7875 -44.1525 205.1375 -43.8125 203.4375 C-37.6963382 190.46446475 -27.86191732 182.7023991 -14.578125 177.796875 C-9.68531289 176.22162072 -5.11415117 175.93705203 0 176 C1.31266846 176.01244751 1.31266846 176.01244751 2.65185547 176.02514648 C16.20529413 176.37720012 26.09469603 181.61794555 35.9375 190.75 C45.93041038 201.30854681 48.70189781 212.85577923 48.60717773 226.96777344 C48.19639743 241.09016239 42.350381 252.16615726 32.125 261.84375 C19.52122503 272.21137134 6.00042088 273.84486324 -9.8125 272.4375 C-22.96971964 270.04527825 -32.83019541 261.84213327 -40.8125 251.4375 C-43.05922594 247.85242787 -44.8125 244.76582015 -44.8125 240.4375 C-51.0825 240.4375 -57.3525 240.4375 -63.8125 240.4375 C-63.8125 287.9575 -63.8125 335.4775 -63.8125 384.4375 C-57.5425 384.4375 -51.2725 384.4375 -44.8125 384.4375 C-44.4825 382.7875 -44.1525 381.1375 -43.8125 379.4375 C-37.6963382 366.46446475 -27.86191732 358.7023991 -14.578125 353.796875 C-9.68531289 352.22162072 -5.11415117 351.93705203 0 352 C1.31266846 352.01244751 1.31266846 352.01244751 2.65185547 352.02514648 C16.20529413 352.37720012 26.09469603 357.61794555 35.9375 366.75 C45.93041038 377.30854681 48.70189781 388.85577923 48.60717773 402.96777344 C48.19639743 417.09016239 42.350381 428.16615726 32.125 437.84375 C19.52122503 448.21137134 6.00042088 449.84486324 -9.8125 448.4375 C-22.96971964 446.04527825 -32.83019541 437.84213327 -40.8125 427.4375 C-43.05922594 423.85242787 -44.8125 420.76582015 -44.8125 416.4375 C-46.62838623 416.4689209 -46.62838623 416.4689209 -48.48095703 416.50097656 C-52.98718361 416.5735654 -57.49335884 416.61936835 -62 416.65722656 C-63.94767966 416.67729906 -65.89529937 416.70456332 -67.84277344 416.73925781 C-70.64793721 416.78796852 -73.45230187 416.81051241 -76.2578125 416.828125 C-77.55659836 416.85909271 -77.55659836 416.85909271 -78.88162231 416.89068604 C-84.35185453 416.89270053 -87.56094771 416.20465861 -91.8125 412.4375 C-95.33733227 407.96830183 -96.31066554 405.08121256 -96.29351807 399.41397095 C-96.29693577 398.73097471 -96.30035347 398.04797847 -96.30387473 397.34428537 C-96.31043418 395.06844441 -96.28851171 392.79379766 -96.26660156 390.51806641 C-96.26547266 388.8817345 -96.26610779 387.24540056 -96.26837158 385.60906982 C-96.26951798 381.17550399 -96.24602081 376.74237213 -96.21807575 372.30890703 C-96.19304968 367.67246235 -96.19071915 363.03600742 -96.18597412 358.39950562 C-96.17354789 349.62353292 -96.14073104 340.84775983 -96.10057616 332.07187498 C-96.05584749 322.0792093 -96.03386865 312.08653403 -96.01379442 302.09379315 C-95.97199807 281.54155932 -95.89865009 260.98959908 -95.8125 240.4375 C-106.3725 240.4375 -116.9325 240.4375 -127.8125 240.4375 C-127.8125 229.8775 -127.8125 219.3175 -127.8125 208.4375 C-117.2525 208.4375 -106.6925 208.4375 -95.8125 208.4375 C-95.83344727 203.44028809 -95.85439453 198.44307617 -95.87597656 193.29443359 C-95.9421919 176.80206879 -95.98661729 160.30969883 -96.01974869 143.81723595 C-96.04037448 133.81575114 -96.06849545 123.81439226 -96.11425781 113.81298828 C-96.154125 105.09582518 -96.17993269 96.37875327 -96.18885398 87.66150153 C-96.19406892 83.04568736 -96.20632631 78.43013409 -96.23542023 73.81440353 C-96.26258746 69.46910049 -96.27094237 65.12416561 -96.26493073 60.77878571 C-96.26603038 59.18485386 -96.27397664 57.5909096 -96.2893219 55.99705124 C-96.30927132 53.81792698 -96.30442253 51.6401864 -96.29351807 49.46102905 C-96.29720524 48.24241873 -96.30089241 47.0238084 -96.30469131 45.76827049 C-95.53681796 40.571897 -93.02208578 37.5092736 -89.15966797 34.08691406 C-84.70934916 31.89389044 -81.14809119 31.93027322 -76.2578125 32.046875 C-74.90549026 32.05536469 -74.90549026 32.05536469 -73.52584839 32.06402588 C-70.66251237 32.08631445 -67.80045411 32.13649611 -64.9375 32.1875 C-62.98960148 32.20757475 -61.04168323 32.22582381 -59.09375 32.2421875 C-54.3328453 32.28615453 -49.57288886 32.35512937 -44.8125 32.4375 C-44.67078369 31.66188721 -44.52906738 30.88627441 -44.38305664 30.0871582 C-42.40434619 20.89805058 -34.8452808 12.72071943 -27.171875 7.71484375 C-18.30637906 2.67537888 -10.23045419 -0.12592243 0 0 Z " fill="#000000" transform="translate(431.8125,31.5625)"/>
<path d="M0 0 C0.09347513 17.49815173 0.1639947 34.99622544 0.20724869 52.49456978 C0.22786682 60.61951167 0.25597297 68.74429836 0.30175781 76.86914062 C0.34164867 83.95143484 0.36743826 91.03361664 0.37635398 98.11602008 C0.38156498 101.86554499 0.39379668 105.61474832 0.42292023 109.36417007 C0.45518227 113.55168117 0.45595798 117.73863453 0.45410156 121.92626953 C0.46848267 123.16704758 0.48286377 124.40782562 0.49768066 125.686203 C0.46700184 132.06984296 0.39330171 136.19028198 -4 141 C-9.66014232 145.90631758 -17.41018638 148.59067331 -24.1875 151.5625 C-25.43271807 152.1140699 -26.67766273 152.66625737 -27.92236328 153.21899414 C-30.70938205 154.45548566 -33.49795589 155.6883832 -36.28759766 156.91894531 C-44.35135513 160.47747418 -52.40363563 164.06191991 -60.45797729 167.64169312 C-63.36997092 168.93526597 -66.28269282 170.22718685 -69.19555664 171.51879883 C-78.03741125 175.44180488 -86.87113002 179.38002202 -95.671875 183.39453125 C-96.40503937 183.72843369 -97.13820374 184.06233612 -97.89358521 184.40635681 C-101.26635819 185.94308827 -104.63626294 187.48557765 -108.00146484 189.03881836 C-109.15855957 189.56741455 -110.3156543 190.09601074 -111.5078125 190.640625 C-112.50441895 191.09985352 -113.50102539 191.55908203 -114.52783203 192.03222656 C-117 193 -117 193 -120 193 C-120 146.8 -120 100.6 -120 53 C-74.43046875 32.746875 -74.43046875 32.746875 -56.51074219 24.78808594 C-55.69005249 24.42356323 -54.86936279 24.05904053 -54.02380371 23.68347168 C-52.2667493 22.90305907 -50.50966713 22.12270896 -48.75256348 21.34240723 C-39.41647544 17.19586572 -30.08274637 13.04448534 -20.765625 8.85546875 C-20.06759766 8.5417482 -19.36957031 8.22802765 -18.65039062 7.90480042 C-15.46807247 6.47402891 -12.28695019 5.04072755 -9.10742188 3.60375977 C-8.03556641 3.12092529 -6.96371094 2.63809082 -5.859375 2.140625 C-4.47443848 1.51462402 -4.47443848 1.51462402 -3.06152344 0.87597656 C-1 0 -1 0 0 0 Z " fill="#000000" transform="translate(288,191)"/>
<path d="M0 0 C3.61467341 1.56924248 7.22899546 3.13929269 10.84326172 4.70947266 C11.85220993 5.14747696 12.86115814 5.58548126 13.90068054 6.03675842 C24.00103757 10.42562967 34.0654507 14.89358382 44.125 19.375 C46.04308386 20.22854134 47.96121653 21.081973 49.87939453 21.93530273 C53.87096771 23.71114071 57.86233296 25.48744468 61.85351562 27.26416016 C71.19986341 31.42458873 80.54764869 35.58178343 89.89593506 39.737854 C92.82030317 41.03817897 95.74439222 42.3391299 98.66845703 43.64013672 C100.46385542 44.43850303 102.25926498 45.23684421 104.0546875 46.03515625 C104.86000916 46.39365158 105.66533081 46.75214691 106.49505615 47.12150574 C107.25191711 47.45789566 108.00877808 47.79428558 108.78857422 48.14086914 C109.43672089 48.42918106 110.08486755 48.71749298 110.75265503 49.01454163 C113.82664539 50.36248312 116.91485263 51.67779398 120 53 C120 99.2 120 145.4 120 193 C116.48640201 192.2972804 114.24108836 191.81349702 111.14819336 190.39624023 C110.4225116 190.06695023 109.69682983 189.73766022 108.94915771 189.39839172 C107.7812973 188.85894173 107.7812973 188.85894173 106.58984375 188.30859375 C105.76252747 187.93175949 104.93521118 187.55492523 104.08282471 187.16667175 C102.29803248 186.353136 100.51430506 185.53726098 98.73153687 184.71929932 C93.9768586 182.53803127 89.21437136 180.37391466 84.453125 178.20703125 C83.48694748 177.7667157 82.52076996 177.32640015 81.52531433 176.8727417 C73.17363929 173.06952169 64.79667666 169.32536475 56.40634155 165.6083374 C54.19572977 164.62864724 51.98604439 163.64689602 49.77661133 162.66455078 C43.39626033 159.82897827 37.01273795 157.00151142 30.61463928 154.20617676 C27.91629754 153.02563129 25.22126406 151.83765974 22.52676392 150.64837646 C20.6891519 149.84069649 18.84696682 149.04344579 17.00463867 148.24658203 C2.73959681 141.9392296 2.73959681 141.9392296 0 135 C-0.24609566 132.39946365 -0.24609566 132.39946365 -0.24050903 129.39385986 C-0.24325836 128.25245041 -0.24600769 127.11104095 -0.24884033 125.93504333 C-0.24164978 124.68707474 -0.23445923 123.43910614 -0.22705078 122.15332031 C-0.22734283 120.83600418 -0.22763489 119.51868805 -0.22793579 118.16145325 C-0.2285096 114.55224648 -0.21675074 110.94317265 -0.20278788 107.33399677 C-0.19028524 103.56102993 -0.18911039 99.78806004 -0.18673706 96.01507568 C-0.18052092 88.8717789 -0.16410829 81.72854333 -0.14403808 74.5852735 C-0.12168326 66.45233322 -0.1106867 58.31939 -0.10064721 50.18642664 C-0.07974218 33.45758192 -0.04456359 16.72879877 0 0 Z " fill="#000000" transform="translate(32,191)"/>
<path d="M0 0 C0.80788971 0.35669266 1.61577942 0.71338531 2.44815063 1.08088684 C5.11537067 2.26333958 7.76795225 3.47553543 10.421875 4.6875 C12.31804948 5.53336659 14.21538018 6.37664534 16.11376953 7.2175293 C19.16124232 8.56794837 22.20777093 9.92022382 25.25088501 11.28044128 C37.22145999 16.62848802 49.27958619 21.76991714 61.33776855 26.91625977 C67.2615492 29.444804 73.18117435 31.98305712 79.1015625 34.51953125 C81.22621022 35.42926171 83.35088347 36.33893256 85.47558594 37.24853516 C92.04177089 40.05976204 98.60707044 42.87305122 105.171875 45.6875 C105.171875 46.3475 105.171875 47.0075 105.171875 47.6875 C83.32545231 57.57002721 61.46049834 67.40538878 39.46704102 76.95727539 C30.73961397 80.75510848 22.07132807 84.64634512 13.4609375 88.703125 C10.86485987 89.91298856 8.26773461 91.12057192 5.67022705 92.32736206 C4.02285171 93.10058168 2.38037282 93.8843328 0.74334717 94.67922974 C-1.51903643 95.77747107 -3.79563016 96.83887699 -6.078125 97.89453125 C-6.73259613 98.22467224 -7.38706726 98.55481323 -8.06137085 98.8949585 C-11.87307202 100.61001362 -14.39077088 100.83663821 -18.2734375 99.60058594 C-19.80338032 98.99152922 -21.32209867 98.35350287 -22.828125 97.6875 C-23.8790332 97.24545479 -23.8790332 97.24545479 -24.95117188 96.79447937 C-27.1352757 95.85371581 -29.29446229 94.8687822 -31.453125 93.87109375 C-32.66510307 93.31828987 -32.66510307 93.31828987 -33.90156555 92.75431824 C-35.6394467 91.96143442 -37.37646955 91.1666671 -39.11270142 90.37017822 C-43.79808328 88.22166059 -48.49070603 86.08909373 -53.18359375 83.95703125 C-54.14863327 83.51840759 -55.11367279 83.07978394 -56.10795593 82.62786865 C-66.08133238 78.10357142 -76.10565603 73.69810032 -86.140625 69.3125 C-89.51062201 67.83901069 -92.88045354 66.36514434 -96.25 64.890625 C-97.46086021 64.36075233 -97.46086021 64.36075233 -98.69618225 63.82017517 C-110.77754017 58.52663473 -122.80552669 53.1129182 -134.828125 47.6875 C-134.828125 47.0275 -134.828125 46.3675 -134.828125 45.6875 C-129.140625 43.25 -129.140625 43.25 -127.24884033 42.43925476 C-123.57697606 40.86562637 -119.90515581 39.29189538 -116.23339844 37.71801758 C-107.31686621 33.8961446 -98.39977751 30.075576 -89.48181152 26.25704956 C-85.18911393 24.41890127 -80.89657067 22.58039282 -76.60408783 20.74174309 C-73.57116259 19.44264712 -70.53811197 18.1438452 -67.50488281 16.84545898 C-65.17656279 15.84878655 -62.8484756 14.85157 -60.52062988 13.85379028 C-58.2505302 12.88194454 -55.97930141 11.91273166 -53.70690918 10.94625854 C-48.24440175 8.61643677 -42.81643009 6.23764433 -37.43164062 3.73291016 C-36.40971619 3.26536819 -35.38779175 2.79782623 -34.3348999 2.31611633 C-32.43898982 1.44557909 -30.55086991 0.55774345 -28.67340088 -0.35188293 C-18.81448201 -4.84123066 -9.73420891 -4.57140912 0 0 Z " fill="#000000" transform="translate(174.828125,131.3125)"/>
</svg>
