<?xml version="1.0" encoding="UTF-8"?>
<svg version="1.1" xmlns="http://www.w3.org/2000/svg" width="512" height="573">
<path d="M0 0 C36.04248631 16.23892241 60.14502681 49.51858591 74.09765625 85.59423828 C93.07475038 136.18955362 98.42434181 199.94537072 76.125 250.3125 C75.1056606 252.55361769 74.06200472 254.77858777 73 257 C67.86748655 252.25573941 64.19972024 246.73103824 60.28515625 240.97460938 C59.77597656 240.23662109 59.26679688 239.49863281 58.7421875 238.73828125 C58.2869873 238.06837158 57.83178711 237.39846191 57.36279297 236.70825195 C55.0514514 233.81100061 53.2702916 233.0350378 49.625 232.5625 C45.90414514 232.72198583 45.90414514 232.72198583 43.0625 235.0625 C40.42690162 238.81623103 40.48149727 240.46894008 41 245 C42.31566154 247.75751247 44.0511513 250.11959118 45.875 252.5625 C46.36444092 253.25069824 46.85388184 253.93889648 47.3581543 254.64794922 C49.84670236 258.13247582 52.41384635 261.54992958 55.02734375 264.94140625 C55.4960791 265.56265381 55.96481445 266.18390137 56.44775391 266.82397461 C57.33858583 267.9995859 58.24785055 269.16151699 59.17724609 270.30688477 C61.19478914 272.97064046 62.06726656 274.43258679 61.66796875 277.80078125 C59.30675164 282.32967309 56.4749533 286.41723384 53.5 290.5625 C52.872146 291.44711914 52.24429199 292.33173828 51.59741211 293.24316406 C44.5023084 303.18843763 37.24349763 312.96490823 29 322 C23.72833335 317.84996455 19.71198992 313.31919319 15.53515625 308.08203125 C12.71493722 304.65344448 9.76745056 301.37953264 6.75 298.125 C6.00713745 297.32243774 6.00713745 297.32243774 5.24926758 296.50366211 C3.84189571 294.99361762 2.42161502 293.49662233 1 292 C0.12859375 291.0615625 -0.7428125 290.123125 -1.640625 289.15625 C-3.91299541 286.69389366 -3.91299541 286.69389366 -7.5 286.375 C-11.09325244 286.77063042 -11.09325244 286.77063042 -13.9375 289 C-16.00934328 292.01359022 -16.98081822 294.07301638 -16.73828125 297.7734375 C-15.40855555 301.78372137 -12.46266395 304.40360974 -9.5546875 307.375 C-7.08370298 309.91399327 -4.8887187 312.53880317 -2.6875 315.3125 C1.32593235 320.29029066 5.59558447 324.96890568 10.01489258 329.58520508 C12.51175816 332.22693578 14.63301684 334.60300592 16 338 C15.21496094 338.845625 14.42992187 339.69125 13.62109375 340.5625 C8.62210933 345.95674925 3.64465229 351.35593714 -1.16796875 356.91796875 C-3.99213208 360.12751897 -6.89408277 363.26542968 -9.78857422 366.41137695 C-14.22986489 371.24083858 -18.62155745 376.1134419 -23 381 C-27.29445018 379.59160505 -29.87046479 377.54145224 -33.125 374.4375 C-36.84646533 370.96080219 -40.59371692 367.63504439 -44.5625 364.4375 C-48.16200997 361.53334991 -51.64608418 358.55497943 -55.0625 355.4375 C-56.70716822 353.95703796 -58.3530046 352.47787265 -60 351 C-60.84691406 350.2265625 -61.69382812 349.453125 -62.56640625 348.65625 C-67.7907303 343.98062056 -67.7907303 343.98062056 -74.375 342.25 C-77.95313593 342.76481403 -77.95313593 342.76481403 -80.4375 344.5625 C-82.63624632 347.99254426 -83.20546215 349.89075703 -83 354 C-78.83351807 361.41954282 -70.33003618 367.02392832 -63.88037109 372.42236328 C-60.8195272 374.99042005 -57.78408347 377.58792828 -54.75 380.1875 C-54.17290283 380.68121094 -53.59580566 381.17492187 -53.0012207 381.68359375 C-47.92426477 386.03878652 -42.94136837 390.491286 -38 395 C-39.45155894 398.33578513 -41.27925938 400.52498603 -43.8515625 403.08203125 C-44.62113281 403.84966797 -45.39070312 404.61730469 -46.18359375 405.40820312 C-46.98925781 406.20162109 -47.79492188 406.99503906 -48.625 407.8125 C-49.40746094 408.59431641 -50.18992187 409.37613281 -50.99609375 410.18164062 C-55.24005928 414.39393477 -59.57700544 418.42596231 -64.10693359 422.32739258 C-67.20474796 425.06444781 -70.1001489 427.99371177 -73 430.9375 C-73.58394531 431.52595703 -74.16789063 432.11441406 -74.76953125 432.72070312 C-76.18204805 434.14479793 -77.5913781 435.5720525 -79 437 C-87.5831555 433.18748209 -94.61912569 425.48886515 -101.48828125 419.234375 C-104.87786766 416.2190664 -108.39747467 413.38291802 -111.9375 410.546875 C-114.27318456 408.60444345 -116.51671648 406.63283625 -118.75 404.578125 C-119.40202393 403.98676758 -120.05404785 403.39541016 -120.72583008 402.78613281 C-122.00406764 401.62227643 -123.27029416 400.44504657 -124.5222168 399.25292969 C-128.97109566 395.23380975 -131.9813994 394.13374668 -138 394 C-140.73351043 394.79127933 -141.61084361 395.45518106 -143.25 397.75 C-144.2635576 400.79067281 -144.44744327 402.80397662 -144 406 C-140.61260724 411.25629911 -135.74317624 414.76950975 -130.89453125 418.64453125 C-128.18012565 420.85342002 -125.58281236 423.13963081 -123 425.5 C-118.74781413 429.36989155 -114.36226326 433.03078898 -109.89453125 436.6484375 C-106.6787938 439.26095295 -103.49271409 441.90696929 -100.3125 444.5625 C-99.78285645 445.00456787 -99.25321289 445.44663574 -98.70751953 445.90209961 C-97.47132866 446.93431282 -96.23560946 447.96709087 -95 449 C-96.64019626 453.42745788 -100.02979866 456.09763408 -103.4375 459.1875 C-104.06495117 459.76338867 -104.69240234 460.33927734 -105.33886719 460.93261719 C-109.89532364 465.08179262 -114.59270745 469.02162423 -119.40234375 472.875 C-122.1132249 475.09262308 -124.71725425 477.39842113 -127.3125 479.75 C-128.12460937 480.48476563 -128.93671875 481.21953125 -129.7734375 481.9765625 C-131.1375157 483.21619848 -132.49782587 484.46001631 -133.8515625 485.7109375 C-135.4375 487.125 -135.4375 487.125 -138 489 C-138.99 488.67 -139.98 488.34 -141 488 C-141.92682373 485.48860666 -142.67944283 483.07488804 -143.375 480.5 C-146.91331771 468.47794226 -151.95475399 459.13666458 -162.86328125 452.171875 C-171.19064196 447.72197537 -178.67281655 445.90776674 -188.078125 446.03125 C-188.99859619 446.04333496 -189.91906738 446.05541992 -190.86743164 446.06787109 C-192.70837101 446.10516482 -194.54903362 446.16440486 -196.38842773 446.24853516 C-203.66097144 446.44752332 -208.58755156 444.82055473 -214.20703125 440.17578125 C-218.3415012 435.37738182 -220.44401044 431.1120897 -222 425 C-225.49181187 411.4448297 -232.12769745 401.62172509 -244 394 C-255.3073991 387.78584675 -268.46882404 388.81265684 -281 389 C-276.98764309 384.71174429 -272.60015099 381.38331467 -267.8125 378 C-266.19264523 376.84253623 -264.57285535 375.68498164 -262.953125 374.52734375 C-262.12876953 373.94065918 -261.30441406 373.35397461 -260.45507812 372.74951172 C-256.64665503 370.03559367 -252.85366797 367.30044943 -249.0625 364.5625 C-247.95201294 363.76078369 -247.95201294 363.76078369 -246.8190918 362.94287109 C-232.13500406 352.32668324 -217.61393952 341.49325464 -203.1328125 330.60253906 C-200.44649854 328.5841136 -197.75425116 326.57366635 -195.0625 324.5625 C-180.60422941 313.71369894 -166.26060771 302.71412017 -152.02099609 291.58007812 C-150.12601995 290.09852635 -148.22914748 288.6194346 -146.33203125 287.140625 C-138.70944782 281.18697943 -131.18761099 275.11568915 -123.69140625 269.00390625 C-120.70356942 266.56883821 -117.70152967 264.15262587 -114.6875 261.75 C-106.63329585 255.32006036 -98.69085084 248.76609535 -90.84106445 242.08886719 C-87.38916913 239.1577518 -83.89813333 236.28310769 -80.375 233.4375 C-75.61192782 229.56187067 -71.06635751 225.48765711 -66.546875 221.33203125 C-64.41058251 219.37594748 -62.25219343 217.45812303 -60.0625 215.5625 C-56.16407421 212.17429763 -52.36086739 208.68511473 -48.56274414 205.18554688 C-45.40405452 202.27731075 -42.21407155 199.409692 -39 196.5625 C-34.59351136 192.61798195 -30.41331672 188.48034352 -26.28515625 184.24829102 C-23.89772205 181.81793205 -21.47205032 179.51688037 -18.8359375 177.36328125 C-16.55613056 175.46344214 -14.73959295 173.71474877 -12.875 171.4375 C-9.80633032 167.82570294 -6.50929151 164.49976277 -3.125 161.1875 C1.57212237 156.56625534 5.81902998 151.74357736 9.921875 146.578125 C11.87317492 144.15733938 13.90326407 141.85735271 16 139.5625 C19.90938971 135.21787008 23.38233328 130.60729395 26.83984375 125.8984375 C28.69996621 123.40257699 30.63680359 121.01795228 32.625 118.625 C43.8115871 104.19404309 49.34638988 85.29579003 47.375 67.1875 C44.34958739 43.93457626 28.97537486 24.0266939 10.88378906 9.91235352 C7.31860161 7.17610679 3.74124169 4.49416112 0 2 C0 1.34 0 0.68 0 0 Z " fill="#000000" transform="translate(422,27)"/>
<path d="M0 0 C1.95898567 -0.00693126 3.91795106 -0.01898906 5.87691116 -0.03116226 C30.02212772 -0.14626384 53.94380841 1.49459177 77.75212479 5.68041611 C78.9752034 5.89061386 80.19828201 6.10081161 81.45842361 6.317379 C126.42060183 14.2803109 187.71417651 29.8949078 215.84587479 69.68822861 C225.16569427 83.43454051 229.54198776 96.66692353 226.97868729 113.37182236 C221.51251879 135.46157387 205.54355013 149.80025815 187.06462479 161.55541611 C144.20392853 186.89153512 94.39258707 197.62064501 45.43962479 203.36791611 C44.53003006 203.48505966 43.62043533 203.60220322 42.68327713 203.72289658 C-31.14704752 213.14238634 -130.767306 202.29439364 -191.35529709 155.99633408 C-195.22507967 152.92869427 -198.90908934 149.69139317 -202.56037521 146.36791611 C-203.30803146 145.71436142 -204.05568771 145.06080673 -204.82600021 144.38744736 C-214.97372155 135.01878336 -223.01257361 121.72651971 -223.93146896 107.81713486 C-224.56578184 91.44892743 -220.11987186 78.58892264 -209.18537521 66.24291611 C-207.65186151 64.61021992 -206.110554 62.98479794 -204.56037521 61.36791611 C-203.9454924 60.68986923 -203.33060959 60.01182236 -202.69709396 59.31322861 C-192.6233204 48.57074631 -179.50369185 41.11864618 -166.56037521 34.36791611 C-165.92889572 34.03582138 -165.29741623 33.70372665 -164.64680099 33.36156845 C-132.20980987 16.55384128 -95.4977114 8.35813825 -59.56037521 3.36791611 C-57.90715256 3.1223497 -57.90715256 3.1223497 -56.22053146 2.87182236 C-37.55118578 0.18574527 -18.82907525 0.05583181 0 0 Z M-5.56037521 27.36791611 C-6.26565922 29.49108998 -6.26565922 29.49108998 -6.56037521 31.36791611 C-8.16525803 31.40658798 -8.16525803 31.40658798 -9.80256271 31.44604111 C-47.30689275 32.69952807 -92.09029633 40.98764831 -119.29084396 69.19994736 C-128.92228346 80.43400811 -131.58547557 90.78220251 -130.56037521 105.36791611 C-127.60412947 119.40117903 -117.71002757 129.68844477 -106.28693771 137.64916611 C-84.78704022 151.59239003 -59.53942237 157.42485257 -34.56037521 161.36791611 C-33.83511642 161.48796005 -33.10985764 161.608004 -32.36262131 161.73168564 C11.94068845 168.84523454 64.15361472 162.34641915 103.43962479 140.36791611 C104.43220291 139.82650986 105.42478104 139.28510361 106.44743729 138.72729111 C118.34182409 131.74653988 129.54062161 120.76141041 134.09196854 107.46166611 C135.85244586 96.8592409 134.54039714 87.81088442 129.43962479 78.36791611 C128.97814041 77.47846298 128.51665604 76.58900986 128.04118729 75.67260361 C109.84121096 43.98431994 67.17461237 26.69343501 33.56462479 17.43041611 C18.58256802 13.56648625 4.38128025 13.77794671 -5.56037521 27.36791611 Z " fill="#000000" transform="translate(223.56037521362305,-0.3679161071777344)"/>
<path d="M0 0 C1.11244322 0.94807686 2.2241081 1.89706704 3.33544922 2.84643555 C3.95459198 3.37480515 4.57373474 3.90317474 5.2116394 4.44755554 C7.57954045 6.5030889 9.84634358 8.65884824 12.125 10.8125 C18.02344938 16.17399815 24.2856025 20.7202746 31 25 C31.93126709 25.59530518 31.93126709 25.59530518 32.88134766 26.20263672 C79.72296974 55.76151764 137.40758566 67.41968977 192 71 C192.87333984 71.05784668 193.74667969 71.11569336 194.64648438 71.17529297 C254.76386203 74.95224231 314.36842363 67.90997922 371.3671875 48.22094727 C375.2261169 46.88978723 378.95240744 45.6416915 383 45 C378.86992875 49.97126493 374.56091991 54.49529394 369.8125 58.875 C369.1532251 59.48722412 368.4939502 60.09944824 367.81469727 60.73022461 C363.28968936 64.89907982 358.61824111 68.82244357 353.80859375 72.66015625 C350.41762122 75.48518065 347.21213573 78.4750547 344 81.5 C339.02061472 86.18763234 333.91818819 90.61232876 328.578125 94.890625 C325.9757371 97.01985146 323.48424498 99.23449357 321 101.5 C316.75348314 105.36533345 312.3698689 109.01398246 307.90625 112.625 C304.79607203 115.16665082 301.74101501 117.76597528 298.6875 120.375 C293.58495267 124.72271461 288.37006621 128.90270268 283.08178711 133.02172852 C279.59651986 135.73796659 276.15516755 138.49568709 272.75 141.3125 C265.74182605 147.07910873 258.54747233 152.60554356 251.37158203 158.16064453 C249.04458794 159.96541841 246.72258345 161.77639716 244.40234375 163.58984375 C229.17863521 175.48346843 213.69661924 187.00923015 198.12353516 198.44042969 C196.20959868 199.84606618 194.29789883 201.25468247 192.38671875 202.6640625 C190.89591797 203.75847656 190.89591797 203.75847656 189.375 204.875 C188.53710938 205.49117187 187.69921875 206.10734375 186.8359375 206.7421875 C185 208 185 208 184 208 C183.99413376 207.32205887 183.98826752 206.64411774 183.98222351 205.94563293 C183.91828421 198.88885465 183.83386255 191.83253219 183.73754883 184.77612305 C183.70429675 182.14272064 183.67626576 179.50924691 183.65356445 176.87573242 C183.62002471 173.09002289 183.5677068 169.30496711 183.51171875 165.51953125 C183.50213387 163.7536541 183.50213387 163.7536541 183.49235535 161.95210266 C183.47256119 160.85133896 183.45276703 159.75057526 183.43237305 158.61645508 C183.42126999 157.65048904 183.41016693 156.68452301 183.39872742 155.68928528 C182.8247205 151.81779745 181.31948845 149.00099124 178.1875 146.625 C175.08685996 145.73910285 173.08383471 146.10054821 170 147 C167.18994929 149.27841949 166.15101182 150.54696453 165 154 C164.88340066 155.91654051 164.82333251 157.83672153 164.79467773 159.7565918 C164.77473251 160.93758957 164.75478729 162.11858734 164.73423767 163.33537292 C164.71752518 164.61044205 164.70081268 165.88551117 164.68359375 167.19921875 C164.6524221 169.15720146 164.6524221 169.15720146 164.62062073 171.15473938 C164.56547727 174.62182353 164.51603405 178.08896646 164.46777344 181.55615234 C164.4175019 185.09543069 164.36184537 188.63462389 164.30664062 192.17382812 C164.19915362 199.11581156 164.09768773 206.05787194 164 213 C146.41766 210.57769889 129.23083871 207.25337052 112 203 C111.99191315 202.2446698 111.98382629 201.4893396 111.97549438 200.71112061 C111.89752349 193.58960079 111.81022548 186.46828513 111.71247292 179.34701157 C111.6625468 175.68596937 111.61621661 172.02495551 111.578125 168.36376953 C111.54122537 164.82990214 111.49485305 161.29627396 111.44193649 157.76261139 C111.41441037 155.75968743 111.39667189 153.75663673 111.37905884 151.75360107 C111.35918915 150.53263733 111.33931946 149.31167358 111.31884766 148.05371094 C111.30552399 146.97893494 111.29220032 145.90415894 111.2784729 144.79681396 C110.99996961 141.99969475 110.49942775 140.35323869 109 138 C106.34543069 135.93533498 104.9117824 136.00315063 101.5 136.125 C97.59014112 137.10246472 96.46341932 137.89353904 94 141 C93.38819555 143.61154889 93.38819555 143.61154889 93.45410156 146.50292969 C93.43438293 147.60376892 93.41466431 148.70460815 93.39434814 149.83880615 C93.39311951 151.02121887 93.39189087 152.20363159 93.390625 153.421875 C93.37408875 154.63699768 93.35755249 155.85212036 93.34051514 157.10406494 C93.29192037 160.98609413 93.2706376 164.86773123 93.25 168.75 C93.2218501 171.38153026 93.19192407 174.01304217 93.16015625 176.64453125 C93.08615804 183.09628272 93.03458278 189.5479234 93 196 C87.46082421 195.18267134 82.78629828 193.53002636 77.625 191.4375 C76.83222656 191.12748047 76.03945312 190.81746094 75.22265625 190.49804688 C66.90865959 187.16073836 58.97456844 183.0657471 51 179 C50.99413376 178.17172195 50.98826752 177.34344391 50.98222351 176.49006653 C50.92427476 168.67716191 50.8521856 160.8645425 50.76428509 153.05191517 C50.7195932 149.03552578 50.68033465 145.01923754 50.65356445 141.00268555 C50.62751939 137.12510696 50.58710899 133.24791788 50.53681374 129.37058067 C50.52015305 127.89269551 50.50863378 126.41474298 50.50238609 124.93677711 C50.49273585 122.86344376 50.4646683 120.79110504 50.43237305 118.71801758 C50.41571846 116.94930046 50.41571846 116.94930046 50.39872742 115.14485168 C49.95996188 111.68421046 49.04690861 109.79508751 47 107 C44.45770394 105.07136161 43.21654982 104.99097709 40 105.125 C36.58132688 106.12211299 35.23165546 107.27242111 33 110 C31.7453285 112.50934299 31.84126442 114.28377355 31.79467773 117.09228516 C31.77473251 118.15323395 31.75478729 119.21418274 31.73423767 120.30728149 C31.71752518 121.45626923 31.70081268 122.60525696 31.68359375 123.7890625 C31.66281265 124.96262299 31.64203156 126.13618347 31.62062073 127.3453064 C31.55508017 131.10514304 31.49621924 134.86505122 31.4375 138.625 C31.39431908 141.16927832 31.35070493 143.71354933 31.30664062 146.2578125 C31.19939418 152.50513207 31.0976362 158.75252326 31 165 C16.0206054 156.0893687 4.56699064 140.86042506 0 124 C-0.50869839 119.77657724 -0.50867263 115.61818714 -0.45410156 111.3684082 C-0.45468567 110.15735916 -0.45526978 108.94631012 -0.45587158 107.69856262 C-0.45358074 104.41391422 -0.4336774 101.12996916 -0.40557575 97.84545922 C-0.3803791 94.39954262 -0.37820585 90.95360865 -0.37347412 87.50761414 C-0.36109748 80.99839513 -0.32834892 74.48944846 -0.28807616 67.98034877 C-0.24319178 60.56310293 -0.22132976 53.14584332 -0.20129442 45.72849524 C-0.15961066 30.48550639 -0.08936352 15.24278847 0 0 Z " fill="#000000" transform="translate(0,152)"/>
<path d="M0 0 C3.59048401 0.49867834 6.66625431 1.6177152 10 3 C18.79931421 6.24680578 27.5421597 6.04264748 36.8125 5.8125 C44.21948968 5.78966242 48.44098953 6.80194394 53.92578125 11.73046875 C58.4254399 16.39781654 60.34968405 20.82587681 62 27 C65.50861992 39.03875091 70.71109555 49.97571993 81.796875 56.6953125 C92.66930839 62.40747928 101.71794813 63.29807695 113.828125 62.74609375 C121.56273409 62.5624508 127.04249989 64.28920833 133.41796875 68.65625 C140.20266855 75.72551779 141.99224266 84.63306014 144.40136719 93.85742188 C145.08987287 96.32166572 145.96553725 98.66037396 147 101 C142.33800358 104.67263383 137.6701581 108.33775173 133 112 C132.27796387 112.56686523 131.55592773 113.13373047 130.81201172 113.71777344 C122.83273312 119.97706251 114.82977347 126.20348576 106.6875 132.25 C106.08365479 132.70375 105.47980957 133.1575 104.85766602 133.625 C99.87059885 137.29260622 95.90726245 139.28498897 89.6875 139.375 C88.80449219 139.40335938 87.92148438 139.43171875 87.01171875 139.4609375 C79.56829421 138.32173634 73.97248807 133.68075295 68.375 128.9375 C66.96697882 127.76852719 65.55810966 126.6005751 64.1484375 125.43359375 C63.45073242 124.85335449 62.75302734 124.27311523 62.03417969 123.67529297 C59.06443254 121.22949305 56.03657391 118.86192526 53 116.5 C47.2589863 112.01918883 41.60303845 107.44041069 35.9609375 102.8359375 C31.67548382 99.34469917 27.35670547 95.90181112 23 92.5 C17.25989332 88.0179989 11.60306754 83.44043443 5.9609375 78.8359375 C1.67544979 75.34467145 -2.64442855 71.9032959 -7 68.5 C-8.71504363 67.15235948 -10.42935859 65.80379649 -12.14355469 64.45507812 C-13.45901407 63.42402369 -14.77770623 62.39708768 -16.09863281 61.37304688 C-18.28308184 59.67651981 -20.45468202 57.96455121 -22.625 56.25 C-23.30046875 55.73115234 -23.9759375 55.21230469 -24.671875 54.67773438 C-29.90059951 50.51274835 -33.41183496 46.5938614 -34.53125 39.75390625 C-34.4529698 31.75954078 -34.01354889 25.97057727 -28.17578125 20.1953125 C-20.24045523 13.5202215 -11.29528639 7.95493866 -2.69897461 2.17993164 C-1.05018275 1.10932645 -1.05018275 1.10932645 0 0 Z M15 46 C13.42101947 49.15796107 13.18071829 52.60670636 14 56 C17.79523354 60.39486581 22.44793068 63.96137783 26.9375 67.625 C27.68894287 68.24109131 28.44038574 68.85718262 29.21459961 69.49194336 C34.34001406 73.68083289 39.51620925 77.79927739 44.73754883 81.86767578 C50.11055182 86.06120136 55.39606687 90.35947591 60.67211914 94.67407227 C67.07090014 100.44813814 67.07090014 100.44813814 75 103 C78.27826915 102.20042216 79.8536614 101.1384284 82.3125 98.8125 C84.49348946 95.17751757 84.67096636 93.17490177 84 89 C80.65629355 85.29415928 76.87944478 82.081304 73.0625 78.875 C72.49893799 78.39981934 71.93537598 77.92463867 71.35473633 77.43505859 C66.7967236 73.61626808 62.14631298 69.92560511 57.45239258 66.27587891 C53.53128757 63.22234206 49.66763323 60.10707178 45.82666016 56.95336914 C35.59944895 47.23636546 35.59944895 47.23636546 23.43359375 41.71484375 C19.8874053 42.13036824 17.78375532 43.84891634 15 46 Z " fill="#000000" transform="translate(120,429)"/>
<path d="M0 0 C0.17036308 9.4200513 -0.36418656 18.74525976 -1.05859375 28.1328125 C-1.16863355 29.66109861 -1.27833242 31.18940931 -1.38771057 32.71774292 C-1.61630219 35.89975155 -1.84765644 39.0815419 -2.08129883 42.26318359 C-2.37881603 46.31512333 -2.67137751 50.36740069 -2.96211147 54.41983223 C-3.24248264 58.32428886 -3.52550225 62.22855234 -3.80859375 66.1328125 C-3.86129362 66.86308781 -3.91399349 67.59336311 -3.96829033 68.34576797 C-4.53980926 76.24188241 -5.1457268 84.12854057 -6 92 C-36.32070182 91.05542985 -71.38125311 83.75620967 -93.9609375 62.12109375 C-98.15086215 57.55305394 -100.69317645 52.81254917 -101.375 46.5625 C-100.56832809 38.89911682 -97.71193069 33.18568755 -92 28 C-67.19221453 8.25933667 -31.35674721 -0.74570148 0 0 Z " fill="#000000" transform="translate(213,51)"/>
<path d="M0 0 C1.11568359 0.34353516 2.23136719 0.68707031 3.38085938 1.04101562 C10.07671741 3.13175513 16.58932595 5.48856792 23.0625 8.1875 C23.17337735 20.13354397 22.88212973 31.9892103 22.1875 43.9140625 C22.09738293 45.52498991 22.00771118 47.13594228 21.91845703 48.74691772 C21.68612317 52.91936566 21.44787939 57.09145421 21.20825195 61.26348877 C20.96327314 65.54784812 20.72409379 69.83253119 20.484375 74.1171875 C20.01597923 82.47427917 19.54131751 90.83099898 19.0625 99.1875 C-3.48757538 103.68069815 -3.48757538 103.68069815 -13.5625 104.4375 C-14.85607422 104.55351562 -14.85607422 104.55351562 -16.17578125 104.671875 C-20.71260002 105.0516386 -25.20610394 105.22236969 -29.75927734 105.20605469 C-30.73375824 105.20337585 -31.70823914 105.20069702 -32.71224976 105.19793701 C-33.44658234 105.1944928 -34.18091492 105.19104858 -34.9375 105.1875 C-33.64723978 83.99204839 -32.26901282 62.80409946 -30.76025391 41.62304688 C-30.54079448 38.53641603 -30.32597296 35.44950967 -30.11474609 32.36230469 C-29.85351045 28.54478923 -29.58465487 24.72788265 -29.31028748 20.91128922 C-29.20877442 19.48181797 -29.10988485 18.05215763 -29.0138092 16.62231064 C-28.88047564 14.64597314 -28.73636092 12.67037198 -28.59179688 10.69482422 C-28.47427063 9.02092117 -28.47427063 9.02092117 -28.35437012 7.3132019 C-27.80479827 3.19249934 -27.01533257 -0.47598761 -24.375 -3.75 C-17.1528412 -6.8981205 -7.03706272 -2.2322519 0 0 Z M-11.9375 46.1875 C-14.95976146 50.19092217 -15.34458801 53.2245542 -15.3125 58.1875 C-15.32023437 59.38375 -15.32796875 60.58 -15.3359375 61.8125 C-14.80980083 66.26918709 -13.2635369 68.8614631 -10.125 72 C-7.0847735 73.65040867 -5.35800168 73.73478027 -1.9375 73.1875 C1.48795988 71.11314959 3.76842195 69.06973414 5.0625 65.1875 C5.99535798 56.02914902 5.99535798 56.02914902 3.5 47.4375 C-1.643317 42.68982277 -6.21093831 42.15287699 -11.9375 46.1875 Z " fill="#000000" transform="translate(260.9375,38.8125)"/>
<path d="M0 0 C5.01087325 1.54520899 8.68809638 3.66759682 12.75 6.9375 C13.35835693 7.42476563 13.96671387 7.91203125 14.59350586 8.4140625 C24.23679389 16.31036886 33.22634024 25.07300508 35.50390625 37.8203125 C35.90547696 43.95494597 34.61164134 48.0217189 30.875 52.8828125 C22.59575412 62.23146098 11.8268469 68.90609146 0 73 C-0.99 73 -1.98 73 -3 73 C-3.30093426 57.60916287 -2.36985766 42.2981743 -1.5 26.9375 C-1.35504271 24.31708082 -1.21050821 21.69663823 -1.06640625 19.07617188 C-0.71580839 12.71716981 -0.36000384 6.35847614 0 0 Z " fill="#000000" transform="translate(303,58)"/>
</svg>
