<?xml version="1.0" encoding="UTF-8"?>
<svg version="1.1" xmlns="http://www.w3.org/2000/svg" width="512" height="512">
<path d="M0 0 C1.83396389 0.00084733 3.66792879 0.00036906 5.50189209 -0.00132751 C10.45577765 -0.00218475 15.40944326 0.01539694 20.36327791 0.03639436 C25.54957736 0.05520654 30.73588239 0.05691517 35.92221069 0.06047058 C45.73214899 0.06977773 55.54198645 0.09437348 65.35188043 0.12451905 C76.52479968 0.15810452 87.69772385 0.17455949 98.87068105 0.18960536 C121.84401896 0.22092423 144.81726749 0.2736588 167.79052734 0.34057617 C167.7986142 1.31395432 167.80670105 2.28733246 167.81503296 3.29020691 C167.89289214 12.51329022 167.98072773 21.7362332 168.07805443 30.95913219 C168.12776453 35.69945094 168.17409442 40.43975009 168.21240234 45.18017578 C168.24957755 49.76442986 168.29601968 54.34850902 168.34859085 58.93261147 C168.36696517 60.67184661 168.38213396 62.41111901 168.39387131 64.15041161 C168.52810703 83.37392417 169.69859058 99.84641282 183.66943359 114.28198242 C195.12246738 124.99461806 209.02608509 127.42422805 224.15600586 127.54589844 C224.93760574 127.55579803 225.71920563 127.56569763 226.52449036 127.57589722 C229.07277541 127.60713925 231.62107902 127.6321198 234.16943359 127.65698242 C235.95019477 127.67758429 237.73095141 127.69858154 239.51170349 127.71995544 C244.17225445 127.77484257 248.83284706 127.82439731 253.49346924 127.87280273 C258.25984351 127.92326317 263.02615815 127.97882043 267.79248047 128.03393555 C277.12511168 128.14110835 286.45779493 128.24264207 295.79052734 128.34057617 C295.88215281 164.06142402 295.95260155 199.7822512 295.99478866 235.50319244 C295.99979128 239.72372679 296.00496859 243.94426091 296.01025391 248.16479492 C296.01130315 249.00500056 296.01235239 249.8452062 296.01343343 250.71087262 C296.03082205 264.30190703 296.06235121 277.89287351 296.09913853 291.48386768 C296.13659093 305.4373145 296.15877227 319.39072585 296.16688132 333.34422088 C296.17236019 341.94906192 296.18964274 350.55371097 296.22219321 359.15849289 C296.24339423 365.06516335 296.2497148 370.97173505 296.24453285 376.87844077 C296.24197965 380.28258121 296.24800719 383.68611816 296.26734924 387.09024429 C296.28734124 390.79099732 296.28243194 394.49093839 296.27154541 398.19171143 C296.28319678 399.25400475 296.29484814 400.31629807 296.30685258 401.4107821 C296.1968409 415.30984922 290.81574059 426.02610695 281.47802734 436.09057617 C269.20363848 447.70740849 255.65490199 448.78547262 239.58105469 448.68115234 C237.7470908 448.68030501 235.9131259 448.68078328 234.0791626 448.68247986 C229.12527703 448.6833371 224.17161143 448.6657554 219.21777678 448.64475799 C214.03147733 448.62594581 208.84517229 448.62423717 203.65884399 448.62068176 C193.84890569 448.61137461 184.03906824 448.58677887 174.22917426 448.55663329 C163.05625501 448.52304782 151.88333084 448.50659285 140.71037364 448.49154699 C117.73703573 448.46022811 94.7637872 448.40749355 71.79052734 448.34057617 C74.53797453 445.58425097 77.27660576 442.84625694 80.17333984 440.24682617 C113.11286056 410.35970104 132.27639554 370.69626346 134.68847656 326.10766602 C135.75500024 297.18905508 128.90180046 268.57691937 114.79052734 243.34057617 C114.25274658 242.37015381 114.25274658 242.37015381 113.70410156 241.38012695 C108.8239184 232.66566819 103.40795768 224.85880855 96.79052734 217.34057617 C96.08283203 216.51170898 95.37513672 215.6828418 94.64599609 214.82885742 C67.6070065 183.79491801 28.87108982 165.20892526 -12.00634766 161.80932617 C-26.99816754 160.81104203 -41.38634975 162.2200431 -56.20947266 164.34057617 C-56.30317321 148.11950391 -56.37357721 131.89852028 -56.41672134 115.67724228 C-56.43729196 108.14435495 -56.46530633 100.61163638 -56.51123047 93.07885742 C-56.55126782 86.50850054 -56.57694539 79.93826596 -56.58582664 73.36779046 C-56.59101304 69.89304719 -56.60308573 66.41865362 -56.63239288 62.94402313 C-56.66494701 59.05238092 -56.66542131 55.16107179 -56.66357422 51.26928711 C-56.67795532 50.13423737 -56.69233643 48.99918762 -56.70715332 47.82974243 C-56.63472827 33.64835952 -51.44598751 22.88279266 -41.89697266 12.59057617 C-29.62258379 0.97374385 -16.0738473 -0.10432028 0 0 Z M11.79052734 102.40307617 C8.36336915 107.43671477 8.13284075 111.31950169 8.79052734 117.34057617 C11.13845392 122.21703907 14.07813589 124.74395231 18.79052734 127.34057617 C23.47116903 128.65880984 28.20507306 128.49548042 33.02783203 128.50170898 C33.9504483 128.50667389 34.87306458 128.51163879 35.82363892 128.51675415 C38.86990104 128.53133502 41.91611108 128.53817122 44.96240234 128.54370117 C47.08603923 128.54945626 49.20967611 128.55521395 51.33331299 128.56097412 C55.78519939 128.57147271 60.2370678 128.57732276 64.68896484 128.58081055 C70.37937107 128.58629087 76.06953751 128.61031403 81.75986862 128.6387825 C86.14720341 128.65745328 90.53448096 128.66261686 94.92185211 128.66414642 C97.01890625 128.66716377 99.1159596 128.67516112 101.21297455 128.6883316 C104.15404743 128.70548387 107.09454123 128.70348937 110.03564453 128.69702148 C111.32183182 128.71084366 111.32183182 128.71084366 112.63400269 128.72494507 C118.74594147 128.68307262 125.66471467 128.12523068 130.42039108 123.8885994 C134.46525386 119.13407561 135.14654679 115.94640874 135.06787109 109.87963867 C134.6567629 106.11597215 133.30766374 104.1226743 130.79052734 101.34057617 C124.26021988 96.19969583 118.51508409 96.18972605 110.55322266 96.17944336 C109.63060638 96.17447845 108.70799011 96.16951355 107.75741577 96.16439819 C104.71115365 96.14981733 101.66494361 96.14298112 98.61865234 96.13745117 C96.49501546 96.13169609 94.37137857 96.1259384 92.2477417 96.12017822 C87.79585529 96.10967963 83.34398688 96.10382958 78.89208984 96.1003418 C73.20168361 96.09486147 67.51151718 96.07083831 61.82118607 96.04236984 C57.43385128 96.02369906 53.04657373 96.01853548 48.65920258 96.01700592 C46.56214844 96.01398858 44.46509509 96.00599123 42.36808014 95.99282074 C39.42700726 95.97566847 36.48651346 95.97766297 33.54541016 95.98413086 C32.68795197 95.97491608 31.83049377 95.96570129 30.947052 95.95620728 C23.94186875 96.00419928 16.56242098 96.7939658 11.79052734 102.40307617 Z M139.79052734 182.40307617 C136.36336915 187.43671477 136.13284075 191.31950169 136.79052734 197.34057617 C139.13845392 202.21703907 142.07813589 204.74395231 146.79052734 207.34057617 C150.58541429 208.32395038 154.1795923 208.47740532 158.09033203 208.50170898 C159.34223328 208.51131653 160.59413452 208.52092407 161.88397217 208.53082275 C163.24344702 208.53567208 164.60292401 208.53995058 165.96240234 208.54370117 C166.99780025 208.54794224 166.99780025 208.54794224 168.0541153 208.55226898 C171.70844399 208.56722602 175.36273358 208.57647693 179.01708984 208.58081055 C182.77045762 208.586284 186.5234606 208.61029783 190.27671432 208.6387825 C193.18171191 208.65751242 196.0866235 208.66261999 198.99167633 208.66414642 C200.37421915 208.66715117 201.75676126 208.67510508 203.13924408 208.6883316 C215.55985582 209.10521654 215.55985582 209.10521654 226.40106201 203.88848877 C230.4805148 199.16033758 231.14646121 195.93980999 231.06787109 189.87963867 C230.6567629 186.11597215 229.30766374 184.1226743 226.79052734 181.34057617 C221.10927373 176.86809993 216.56447586 176.22340388 209.49072266 176.17944336 C207.61287079 176.16503204 207.61287079 176.16503204 205.69708252 176.15032959 C204.33760767 176.14548027 202.97813067 176.14120177 201.61865234 176.13745117 C200.58325443 176.13321011 200.58325443 176.13321011 199.52693939 176.12888336 C195.87261069 176.11392632 192.2183211 176.10467542 188.56396484 176.1003418 C184.81059706 176.09486835 181.05759408 176.07085451 177.30434036 176.04236984 C174.39934278 176.02363992 171.49443119 176.01853235 168.58937836 176.01700592 C167.20683553 176.01400117 165.82429343 176.00604726 164.44181061 175.99282074 C150.84714952 175.5921299 150.84714952 175.5921299 139.79052734 182.40307617 Z M173.18603516 260.79296875 C169.0955652 265.51246654 168.43462296 268.74361596 168.51318359 274.80151367 C168.92429178 278.56518019 170.27339094 280.55847805 172.79052734 283.34057617 C180.33484889 289.27972292 188.16154867 288.55612327 197.34521484 288.58081055 C199.52008776 288.59048525 201.69400193 288.62153093 203.86865234 288.65307617 C215.93114511 289.02690841 215.93114511 289.02690841 226.39501953 283.88818359 C230.48548949 279.1686858 231.14643173 275.93753638 231.06787109 269.87963867 C230.6567629 266.11597215 229.30766374 264.1226743 226.79052734 261.34057617 C219.2462058 255.40142942 211.41950601 256.12502907 202.23583984 256.1003418 C200.06096693 256.0906671 197.88705276 256.05962142 195.71240234 256.02807617 C183.64990958 255.65424394 183.64990958 255.65424394 173.18603516 260.79296875 Z M173.18603516 340.79296875 C169.0955652 345.51246654 168.43462296 348.74361596 168.51318359 354.80151367 C168.92429178 358.56518019 170.27339094 360.55847805 172.79052734 363.34057617 C180.33484889 369.27972292 188.16154867 368.55612327 197.34521484 368.58081055 C199.52008776 368.59048525 201.69400193 368.62153093 203.86865234 368.65307617 C215.93114511 369.02690841 215.93114511 369.02690841 226.39501953 363.88818359 C230.48548949 359.1686858 231.14643173 355.93753638 231.06787109 349.87963867 C230.6567629 346.11597215 229.30766374 344.1226743 226.79052734 341.34057617 C219.2462058 335.40142942 211.41950601 336.12502907 202.23583984 336.1003418 C200.06096693 336.0906671 197.88705276 336.05962142 195.71240234 336.02807617 C183.64990958 335.65424394 183.64990958 335.65424394 173.18603516 340.79296875 Z " fill="#000000" transform="translate(184.20947265625,31.659423828125)"/>
<path d="M0 0 C22.03852652 18.81159856 36.46579334 41.06373377 44.3515625 68.91015625 C44.69316406 70.08835937 45.03476562 71.2665625 45.38671875 72.48046875 C51.59092755 98.74014322 48.11935597 128.40755389 37.3515625 152.91015625 C36.92665527 153.89145508 36.92665527 153.89145508 36.49316406 154.89257812 C26.5368784 177.44549041 9.36062038 197.02673908 -11.6484375 209.91015625 C-12.62039062 210.53148437 -13.59234375 211.1528125 -14.59375 211.79296875 C-42.19266119 228.79389804 -78.48407342 233.87675237 -110.02270508 226.74853516 C-132.64096138 221.05237124 -152.81531324 210.04747569 -169.6484375 193.91015625 C-170.53144531 193.10191406 -171.41445312 192.29367187 -172.32421875 191.4609375 C-189.12966815 175.5587513 -199.40530209 154.95606995 -205.6484375 132.91015625 C-205.99003906 131.73195313 -206.33164063 130.55375 -206.68359375 129.33984375 C-212.88780255 103.08016928 -209.41623097 73.41275861 -198.6484375 48.91015625 C-198.36516602 48.25595703 -198.08189453 47.60175781 -197.79003906 46.92773438 C-184.50416539 16.83266141 -158.92687464 -6.87402964 -128.45214844 -18.9609375 C-123.25349867 -20.92030702 -117.99243399 -22.57648875 -112.6484375 -24.08984375 C-111.47023438 -24.43144531 -110.29203125 -24.77304688 -109.078125 -25.125 C-71.91216204 -33.90596927 -29.43835184 -24.14652242 0 0 Z M-126.0234375 60.53515625 C-128.22751643 65.11285864 -128.4456014 68.91568036 -127.6484375 73.91015625 C-125.31874819 78.74874173 -122.48702298 81.58046694 -117.6484375 83.91015625 C-112.65396161 84.70732015 -108.85113989 84.48923518 -104.2734375 82.28515625 C-100.68936037 79.0424198 -98.05308509 76.44539729 -97.265625 71.51171875 C-97.00959831 65.82792631 -97.71216818 62.2607697 -101.6484375 57.91015625 C-105.99905095 53.97388693 -109.56620756 53.27131706 -115.25 53.52734375 C-120.18367854 54.31480384 -122.78070105 56.95107912 -126.0234375 60.53515625 Z M-62.92584229 60.50991821 C-63.8294046 61.42866226 -63.8294046 61.42866226 -64.7512207 62.3659668 C-65.41081284 63.01679733 -66.07040497 63.66762787 -66.74998474 64.33818054 C-68.91242123 66.47873034 -71.0561898 68.63690842 -73.19921875 70.796875 C-74.70444536 72.29873046 -76.21041329 73.79984327 -77.71708679 75.30024719 C-80.86621721 78.44202071 -84.00616418 81.5926218 -87.13989258 84.74975586 C-91.14893383 88.7872827 -95.18000594 92.80194469 -99.2182436 96.81024456 C-102.33033182 99.90422868 -105.43036794 103.01006856 -108.52693748 106.11957741 C-110.00837876 107.60434402 -111.49351547 109.08543326 -112.98244667 110.56268883 C-115.06487544 112.632359 -117.13050719 114.71749266 -119.19262695 116.80737305 C-120.111371 117.71093536 -120.111371 117.71093536 -121.04867554 118.63275146 C-125.08584965 122.77071904 -127.08582575 126.31563777 -128.6484375 131.91015625 C-128.260826 137.81436918 -126.00030553 141.8421057 -121.6484375 145.91015625 C-117.76276256 148.26485862 -114.16890854 149.33445368 -109.6484375 148.53515625 C-99.43194934 144.99176058 -90.94594334 133.42508478 -83.41015625 125.9453125 C-82.73721842 125.27769835 -82.06428059 124.61008419 -81.3709507 123.9222393 C-77.81759444 120.39544955 -74.26781144 116.86510325 -70.72045898 113.33227539 C-67.7953929 110.42059522 -64.86321114 107.51637642 -61.92456055 104.6184082 C-58.35748594 101.10068779 -54.80287791 97.57081609 -51.25684547 94.03188896 C-49.90993076 92.69167029 -48.55877801 91.35569628 -47.20325279 90.02418709 C-45.3079947 88.16064149 -43.42921876 86.2818327 -41.5534668 84.39868164 C-40.9970752 83.85869537 -40.44068359 83.31870911 -39.86743164 82.76235962 C-36.16053 78.99549419 -33.73603311 75.14576257 -32.6484375 69.91015625 C-33.02966962 64.00784592 -35.30020592 59.97480751 -39.6484375 55.91015625 C-48.85930768 51.2251647 -55.82554304 53.58256951 -62.92584229 60.50991821 Z M-62.0234375 124.53515625 C-64.22751643 129.11285864 -64.4456014 132.91568036 -63.6484375 137.91015625 C-61.31874819 142.74874173 -58.48702298 145.58046694 -53.6484375 147.91015625 C-48.65396161 148.70732015 -44.85113989 148.48923518 -40.2734375 146.28515625 C-36.68936037 143.0424198 -34.05308509 140.44539729 -33.265625 135.51171875 C-33.00959831 129.82792631 -33.71216818 126.2607697 -37.6484375 121.91015625 C-41.99905095 117.97388693 -45.56620756 117.27131706 -51.25 117.52734375 C-56.18367854 118.31480384 -58.78070105 120.95107912 -62.0234375 124.53515625 Z " fill="#000000" transform="translate(240.6484375,251.08984375)"/>
<path d="M0 0 C5.3083201 4.43539238 10.25540965 9.11234177 15.13842773 14.0090332 C15.91973557 14.78858871 16.7010434 15.56814423 17.50602722 16.37132263 C20.06772423 18.92864557 22.62577865 21.4895761 25.18359375 24.05078125 C26.96706265 25.83357625 28.75067996 27.6162228 30.53443909 29.39872742 C34.26050781 33.12332555 37.98482017 36.84967101 41.70776367 40.57739258 C46.01571148 44.89080524 50.32728226 49.20057137 54.64070553 53.50850803 C58.79540807 57.65813712 62.94730943 61.81056005 67.09800911 65.96419334 C68.86401929 67.73087261 70.6307781 69.49680384 72.398283 71.26198769 C74.85705312 73.71823507 77.31262359 76.17763582 79.76733398 78.63793945 C80.50439575 79.37297699 81.24145752 80.10801453 82.00085449 80.86532593 C82.6638707 81.53116196 83.3268869 82.19699799 84.00999451 82.88301086 C84.59085029 83.46424367 85.17170607 84.04547647 85.77016354 84.6443224 C87 86 87 86 87 87 C77.06415163 87.09276894 67.12840667 87.16379998 57.19221306 87.20724869 C52.57818149 87.22810426 47.96444671 87.25638462 43.35058594 87.30175781 C38.89612037 87.34528828 34.44193988 87.36915238 29.98727798 87.37950897 C28.28962849 87.38688745 26.59199421 87.40129606 24.8944664 87.42292023 C22.51247457 87.4520508 20.13165364 87.4559521 17.74951172 87.45410156 C17.05107651 87.46848267 16.3526413 87.48286377 15.63304138 87.49768066 C10.61357154 87.45561581 7.80556892 86.22897011 4 83 C0.21064575 78.53397887 -0.57148376 74.95129282 -0.45410156 69.25048828 C-0.45468567 68.49858719 -0.45526978 67.7466861 -0.45587158 66.97200012 C-0.45310062 64.50428957 -0.42205752 62.03781015 -0.390625 59.5703125 C-0.38315904 57.8525356 -0.37746779 56.13475015 -0.37347412 54.41696167 C-0.3582456 49.90897864 -0.31898817 45.40151605 -0.2746582 40.89373779 C-0.23364518 36.28860513 -0.21545026 31.68338789 -0.1953125 27.078125 C-0.1524909 18.05185543 -0.08427361 9.0259711 0 0 Z " fill="#000000" transform="translate(384,41)"/>
</svg>
